<svg xmlns="http://www.w3.org/2000/svg" width="50" height="52" viewBox="0 0 50 52">
    <path fill="#173E4F" fill-rule="evenodd" d="M49.991 26.071c.368 14.336-11.027 25.363-24.995 25.363C11.396 51.434 0 40.04 0 26.071 0 12.471 11.395.708 24.996.708 38.964.708 49.99 12.103 49.99 26.07zm-4.998 0c0-11.174-8.822-20.29-19.996-20.29C14.117 5.78 5 15.19 5 26.07c0 11.175 9.116 20.29 19.997 20.29 11.174 0 20.29-8.821 19.996-20.29zm-3.999 0c.236 9.175-7.057 16.233-15.997 16.233C16.293 42.304 9 35.01 9 26.07 9 17.367 16.293 9.84 24.997 9.84c8.94 0 15.997 7.292 15.997 16.232zm-3.198 0c0-7.152-5.647-12.986-12.798-12.986-6.964 0-12.798 6.023-12.798 12.986 0 7.152 5.834 12.986 12.798 12.986 7.151 0 12.986-5.646 12.798-12.986zm-2.56 0c.151 5.872-4.516 10.389-10.238 10.389-5.57 0-10.238-4.668-10.238-10.389 0-5.57 4.667-10.389 10.238-10.389 5.722 0 10.238 4.668 10.238 10.39zm-2.047 0c0-4.577-3.613-8.31-8.19-8.31-4.457 0-8.191 3.853-8.191 8.31 0 4.577 3.734 8.311 8.19 8.311 4.578 0 8.312-3.613 8.191-8.31z"/>
</svg>
