<svg xmlns="http://www.w3.org/2000/svg" width="27" height="27" viewBox="0 0 27 27">
    <g fill="none" fill-rule="evenodd">
        <path fill="#173E4F" stroke="#FFF" stroke-width="2" d="M1.72 1.23h24v24h-24z"/>
        <path fill="#FFF" fill-rule="nonzero" d="M21.51 5.438c-.277-.279-.718-.279-.973 0l-6.817 6.817-6.818-6.817c-.278-.279-.719-.279-.974 0-.278.278-.278.719 0 .974l6.818 6.817-6.818 6.817c-.278.279-.278.72 0 .974.14.14.325.209.487.209.163 0 .348-.07.487-.209l6.818-6.817 6.817 6.817c.14.14.325.209.487.209.162 0 .348-.07.487-.209.278-.278.278-.719 0-.974l-6.817-6.817 6.817-6.817a.672.672 0 0 0 0-.974z"/>
    </g>
</svg>
