<svg xmlns="http://www.w3.org/2000/svg" width="26" height="26" viewBox="0 0 26 26">
    <path fill="none" fill-rule="evenodd" stroke="#173E4F" stroke-linecap="round" stroke-linejoin="round" stroke-width="1.8" d="M20.66 1.503c1.196 0 2.218.425 3.067 1.274.849.848 1.273 1.87 1.273 3.066v14.464c0 1.195-.424 2.217-1.273 3.066-.849.849-1.871 1.273-3.066 1.273h-2.833v-8.965h2.998l.452-3.495h-3.45v-2.23c0-.562.118-.984.354-1.266.236-.28.696-.421 1.379-.421l1.838-.016V5.135c-.633-.09-1.527-.136-2.682-.136-1.366 0-2.458.402-3.277 1.205-.819.804-1.228 1.939-1.228 3.405v2.577H11.2v3.495h3.013v8.965H6.196c-1.195 0-2.217-.424-3.066-1.273-.848-.849-1.273-1.87-1.273-3.066V5.843c0-1.196.425-2.218 1.273-3.066.85-.85 1.871-1.274 3.066-1.274h14.465z"/>
</svg>
