<svg xmlns="http://www.w3.org/2000/svg" width="18" height="17" viewBox="0 0 18 17">
    <path fill="none" fill-rule="evenodd" stroke="#FFF" stroke-linecap="round" stroke-linejoin="round" stroke-width="1.2" d="M13.536.722c.797 0 1.478.283 2.044.848.566.566.849 1.248.849 2.044v9.643c0 .797-.283 1.479-.85 2.044a2.786 2.786 0 0 1-2.043.85h-1.889v-5.977h2l.3-2.33h-2.3V6.356c0-.375.079-.657.236-.844.158-.188.464-.281.92-.281l1.225-.01v-2.08c-.422-.06-1.018-.09-1.788-.09-.91 0-1.639.268-2.185.804-.546.535-.818 1.292-.818 2.27v1.717h-2.01v2.33h2.01v5.977H3.893a2.786 2.786 0 0 1-2.044-.849A2.786 2.786 0 0 1 1 13.257V3.614c0-.796.283-1.478.849-2.044A2.786 2.786 0 0 1 3.893.722h9.643z"/>
</svg>
