<svg xmlns="http://www.w3.org/2000/svg" width="186" height="130" viewBox="0 0 186 130">
    <g fill="none" fill-rule="evenodd">
        <path stroke="#173E4F" d="M1 .5h184v65H1zM1 65.5h184v32H1zM1 97.5h184v32H1z"/>
        <text fill="#173E4F" font-family="AvenirNext-Heavy, Avenir Next" font-size="48" font-weight="600" transform="translate(.5)">
            <tspan x="18.5" y="48">87%</tspan>
        </text>
        <text fill="#173E4F" font-family="AvenirNext-DemiBoldItalic, Avenir Next" font-size="18" font-style="italic" font-weight="500" letter-spacing="2.625" transform="translate(.5)">
            <tspan x="27.937" y="119.66">GAS</tspan> <tspan x="71.488" y="119.66" font-family="Avenir-Oblique, Avenir" font-weight="normal" letter-spacing="2.461"> IS USED</tspan>
        </text>
        <g fill="#173E4F">
            <text font-family="AvenirNext-DemiBold, Avenir Next" font-size="24" font-weight="500" letter-spacing="3.5" transform="translate(19 65)">
                <tspan x="79" y="24">LESS</tspan>
            </text>
            <path fill-rule="nonzero" d="M28.14 71.628a.642.642 0 0 0-.64.64v16.288l-6.784-5.824a.65.65 0 0 0-.896.064.65.65 0 0 0 .064.896l7.84 6.72c.128.096.256.16.416.16.16 0 .288-.064.416-.16l7.84-6.72a.65.65 0 0 0 .064-.896.65.65 0 0 0-.896-.064l-6.784 5.824V72.268a.642.642 0 0 0-.64-.64zM52.14 71.628a.642.642 0 0 0-.64.64v16.288l-6.784-5.824a.65.65 0 0 0-.896.064.65.65 0 0 0 .064.896l7.84 6.72c.128.096.256.16.416.16.16 0 .288-.064.416-.16l7.84-6.72a.65.65 0 0 0 .064-.896.65.65 0 0 0-.896-.064l-6.784 5.824V72.268a.642.642 0 0 0-.64-.64zM76.14 71.628a.642.642 0 0 0-.64.64v16.288l-6.784-5.824a.65.65 0 0 0-.896.064.65.65 0 0 0 .064.896l7.84 6.72c.128.096.256.16.416.16.16 0 .288-.064.416-.16l7.84-6.72a.65.65 0 0 0 .064-.896.65.65 0 0 0-.896-.064l-6.784 5.824V72.268a.642.642 0 0 0-.64-.64z"/>
        </g>
        <g fill="#173E4F" fill-rule="nonzero">
            <path d="M156.265 28.625a.73.73 0 1 0 .864-1.175l-.734-.54-.366.835a.729.729 0 0 0 .236.88zM154.996 29.311a.729.729 0 1 0 .53-1.358l-.848-.331-.137.9a.73.73 0 0 0 .455.79zM153.949 30.302a.73.73 0 0 0 .161-1.449l-.906-.1.101.905a.73.73 0 0 0 .644.644zM153.194 31.53a.729.729 0 0 0-.22-1.44l-.9.136.331.85a.73.73 0 0 0 .789.455zM152.197 31.577l-.835.366.54.734a.73.73 0 1 0 .295-1.1zM163.396 31.813a.73.73 0 0 0 1.175.864l.54-.734-.835-.366a.73.73 0 0 0-.88.236zM162.71 30.545a.729.729 0 1 0 1.358.53l.332-.849-.901-.137a.73.73 0 0 0-.79.456zM161.719 29.497a.73.73 0 0 0 1.45.161l.1-.906-.906.101a.73.73 0 0 0-.644.644zM160.49 28.742a.73.73 0 0 0 1.442-.22l-.137-.9-.849.331a.73.73 0 0 0-.455.79z"/>
            <path d="M160.069 28.706a.729.729 0 0 0 .375-.96l-.365-.836-.734.54a.73.73 0 0 0 .724 1.256zM160.208 38.944a.73.73 0 1 0-.863 1.175l.734.54.365-.835a.73.73 0 0 0-.236-.88zM161.477 38.258a.729.729 0 0 0-.53 1.358l.848.332.137-.901a.73.73 0 0 0-.455-.789zM162.524 37.267a.729.729 0 1 0-.16 1.45l.905.1-.1-.906a.73.73 0 0 0-.645-.644zM163.28 36.039a.73.73 0 0 0 .219 1.441l.9-.137-.331-.849a.73.73 0 0 0-.789-.455z"/>
            <path d="M164.276 35.992l.835-.365-.54-.734a.73.73 0 0 0-1.255.724.73.73 0 0 0 .96.375zM153.077 35.757a.73.73 0 1 0-1.175-.864l-.54.734.835.365a.73.73 0 0 0 .88-.235zM153.763 37.025a.729.729 0 1 0-1.358-.53l-.332.848.901.137a.73.73 0 0 0 .79-.455zM154.754 38.072a.729.729 0 1 0-1.449-.16l-.1.905.905-.1a.73.73 0 0 0 .644-.645zM154.541 39.047l.137.9.85-.33a.73.73 0 1 0-.987-.57z"/>
            <path d="M156.029 39.824l.365.835.735-.54a.73.73 0 1 0-1.1-.295z"/>
            <path d="M170.335 20.975h-24.197a.712.712 0 0 0-.712.711v24.197c0 .393.319.712.712.712h24.197a.712.712 0 0 0 .712-.712V21.686a.712.712 0 0 0-.712-.711zm-23.485 1.423h10.675v6.606a4.842 4.842 0 0 0-4.07 4.07h-6.605V22.397zm10.675 22.774H146.85V34.496h6.606a4.842 4.842 0 0 0 4.069 4.07v6.606zm.712-9.252a.712.712 0 0 0-.712.711v.784a3.71 3.71 0 0 1-2.919-2.919h.784a.712.712 0 1 0 0-1.423h-.784a3.71 3.71 0 0 1 2.919-2.919v.784a.712.712 0 1 0 1.423 0v-.784a3.71 3.71 0 0 1 2.919 2.92h-.784a.712.712 0 1 0 0 1.422h.784a3.71 3.71 0 0 1-2.919 2.92v-.785a.712.712 0 0 0-.711-.711zm11.386 9.252h-10.675v-6.606a4.842 4.842 0 0 0 4.07-4.07h6.605v10.676zm0-12.099h-6.605a4.842 4.842 0 0 0-4.07-4.07v-6.605h10.675v10.675z"/>
        </g>
    </g>
</svg>
