<svg xmlns="http://www.w3.org/2000/svg" width="300" height="55" viewBox="0 0 300 55">
    <g fill="#FFF" fill-rule="evenodd">
        <path d="M48.084 16.783c0-9.282 7.095-16.735 16.868-16.735 6.515 0 11.826 3.392 14.638 8.39l-4.24 2.544c-2.097-3.927-5.712-6.293-10.398-6.293-7.05 0-12.004 5.49-12.004 12.094 0 6.65 5.043 12.05 12.05 12.05 6.158 0 10.04-3.75 11.066-9.015H64.372V15.22h16.78v1.741c0 8.836-6.025 16.556-16.155 16.556-9.818 0-16.913-7.631-16.913-16.735zM91.46.495h10.13c6.918 0 11.515 4.685 11.515 10.62 0 4.33-2.41 8.435-7.052 9.863l7.766 12.094h-5.58l-9.817-15.53h2.633c4.865 0 7.185-3.437 7.185-6.426 0-3.66-2.365-6.114-7.14-6.114h-4.775v28.07H91.46V.495zM124.663.495h19.547V5.09h-14.682v9.327h14.682v4.596h-14.682v9.417h14.682v4.64h-19.547zM156.795.495h19.546V5.09H161.66v9.327h14.682v4.596H161.66v9.417h14.682v4.64h-19.546zM188.033.495h5.489l16.512 24.634V.495h4.82v32.577h-5.132L192.898 8.037v25.035h-4.865zM227.885.495h10.13c6.917 0 11.514 4.685 11.514 10.62 0 4.33-2.41 8.435-7.051 9.863l7.764 12.094h-5.578l-9.818-15.53h2.633c4.864 0 7.185-3.437 7.185-6.426 0-3.66-2.365-6.114-7.14-6.114h-4.775v28.07h-4.864V.495zM59.408 51.548h3.067l-1.539-4.052-1.528 4.052zm1.063-5.215h.93l3.067 8.083h-.897l-.786-2.048h-3.687l-.775 2.048h-.908l3.056-8.083zM78.272 51.305h-2.325v3.111H74.01v-8.083h1.938v3.068h2.325v-3.068h1.926v8.083h-1.926zM83.857 46.333h4.794v1.794h-2.868v1.329h2.868v1.793h-2.868v1.374h2.868v1.793h-4.794zM94.955 51.471h1.55l-.775-2.358-.775 2.358zm-.155-5.138h1.86l2.767 8.083h-1.96l-.386-1.185h-2.713l-.388 1.185h-1.948l2.768-8.083zM102.854 46.333h1.938v6.235h2.634v1.848h-4.572zM111.216 48.138h-2.015v-1.804h5.89v1.804h-1.993v6.278h-1.882zM122.924 51.305H120.6v3.111h-1.939v-8.083h1.939v3.068h2.324v-3.068h1.927v8.083h-1.927zM130.768 50.63l-2.525-4.296h2.093l1.406 2.435 1.395-2.435h2.082l-2.513 4.317v3.765h-1.938zM149.542 53.11l-2.458-2.459c-.199-.2-.387-.387-.553-.564-.72.41-1.13.997-1.13 1.815 0 .875.71 1.871 2.28 1.871.71 0 1.34-.254 1.861-.663zm.532.531c-.665.542-1.473.897-2.392.897-2.258 0-3.144-1.417-3.144-2.624 0-1.085.609-1.938 1.495-2.425-.31-.421-.477-.853-.477-1.384 0-1.018.786-1.882 2.082-1.882.985 0 1.627.498 1.981 1.052l-.708.464c-.243-.387-.63-.764-1.273-.764-.73 0-1.196.52-1.196 1.13 0 .676.377 1.075 1.34 2.048l2.358 2.37c.51-.62.83-1.384.93-2.104h-1.307v-.808h2.15v.365c0 .996-.455 2.17-1.241 3.078l1.361 1.362h-1.173l-.786-.775zM165.87 51.305h-2.324v3.111h-1.938v-8.083h1.938v3.068h2.325v-3.068h1.926v8.083h-1.926zM174.146 51.471h1.55l-.775-2.358-.775 2.358zm-.155-5.138h1.86l2.768 8.083h-1.96l-.387-1.185h-2.713l-.388 1.185h-1.948l2.768-8.083zM183.983 48.094v2.403h.742c.697 0 1.218-.477 1.218-1.196 0-.72-.52-1.207-1.218-1.207h-.742zm-1.938-1.76h2.757c1.893 0 3.1 1.34 3.1 2.956 0 1.627-1.195 3-3.11 3h-.81v2.126h-1.937v-8.083zM193.41 48.094v2.403h.742c.697 0 1.217-.477 1.217-1.196 0-.72-.52-1.207-1.217-1.207h-.742zm-1.938-1.76h2.757c1.893 0 3.1 1.34 3.1 2.956 0 1.627-1.195 3-3.11 3h-.81v2.126h-1.937v-8.083zM202.316 50.63l-2.524-4.296h2.092l1.406 2.435 1.396-2.435h2.081l-2.513 4.317v3.765h-1.938zM216.385 46.333h.864v7.252h3.61v.83h-4.474zM225.49 54.415h.864v-8.082h-.863zM231.15 46.333h4.573v.82h-3.708v2.801h3.708v.82h-3.708v3.642h-.864zM240.29 46.333h4.905v.82h-4.042v2.801h4.042v.82h-4.042v2.811h4.042v.83h-4.905zM298.11 20.418h-28.278a1.768 1.768 0 0 1 0-3.535h28.279a1.768 1.768 0 0 1 0 3.535M30.046 20.418H1.767a1.768 1.768 0 0 1 0-3.535h28.28a1.768 1.768 0 0 1 0 3.535"/>
    </g>
</svg>
