<svg xmlns="http://www.w3.org/2000/svg" width="160" height="30" viewBox="0 0 160 30">
    <g fill="#173E4F" fill-rule="evenodd">
        <path d="M25.645 9.551c0-4.95 3.784-8.925 8.996-8.925 3.475 0 6.307 1.809 7.807 4.474l-2.261 1.357c-1.119-2.095-3.047-3.356-5.546-3.356-3.76 0-6.402 2.928-6.402 6.45 0 3.546 2.69 6.426 6.426 6.426 3.285 0 5.355-2 5.903-4.807h-6.236V8.718h8.949v.928c0 4.713-3.213 8.83-8.616 8.83-5.236 0-9.02-4.07-9.02-8.925zM48.779.864h5.403c3.689 0 6.14 2.499 6.14 5.664 0 2.309-1.285 4.499-3.76 5.26l4.141 6.45h-2.975l-5.236-8.282h1.404c2.594 0 3.832-1.833 3.832-3.428 0-1.952-1.261-3.26-3.808-3.26h-2.547v14.97H48.78V.864zM66.487.864h10.425v2.451h-7.83V8.29h7.83v2.45h-7.83v5.023h7.83v2.475H66.487zM83.624.864h10.425v2.451h-7.831V8.29h7.83v2.45h-7.83v5.023h7.83v2.475H83.625zM100.284.864h2.928l8.806 13.138V.864h2.57v17.374h-2.736l-8.973-13.352v13.352h-2.595zM121.539.864h5.402c3.69 0 6.14 2.499 6.14 5.664 0 2.309-1.284 4.499-3.76 5.26l4.142 6.45h-2.975l-5.237-8.282h1.404c2.595 0 3.833-1.833 3.833-3.428 0-1.952-1.262-3.26-3.808-3.26h-2.547v14.97h-2.594V.864zM31.684 28.092h1.636l-.82-2.16-.816 2.16zm.567-2.781h.496l1.636 4.31h-.478l-.42-1.092H31.52l-.413 1.093h-.485l1.63-4.311zM41.745 27.963h-1.24v1.659h-1.034V25.31h1.034v1.636h1.24v-1.636h1.027v4.31h-1.027zM44.723 25.311h2.557v.957h-1.53v.709h1.53v.956h-1.53v.733h1.53v.956h-2.557zM50.643 28.051h.826l-.413-1.257-.413 1.257zm-.083-2.74h.992l1.476 4.31h-1.045l-.207-.631H50.33l-.207.632h-1.04l1.477-4.31zM54.855 25.311h1.034v3.325h1.405v.986h-2.439zM59.315 26.274h-1.074v-.963h3.141v.963H60.32v3.348h-1.004zM65.56 27.963h-1.24v1.659h-1.034V25.31h1.034v1.636h1.24v-1.636h1.027v4.31H65.56zM69.743 27.603l-1.346-2.292h1.116l.75 1.3.744-1.3h1.11l-1.34 2.303v2.008h-1.034zM79.756 28.925l-1.311-1.31c-.106-.107-.207-.208-.295-.302-.384.219-.602.532-.602.968 0 .467.377.998 1.216.998.378 0 .714-.135.992-.354zm.283.284c-.354.289-.785.478-1.275.478-1.205 0-1.677-.756-1.677-1.4 0-.578.325-1.033.797-1.293a1.19 1.19 0 0 1-.254-.738c0-.543.42-1.004 1.11-1.004.526 0 .868.266 1.057.562l-.378.247c-.13-.206-.336-.407-.679-.407-.39 0-.638.277-.638.602 0 .36.201.573.715 1.092l1.258 1.264c.271-.33.443-.738.496-1.122h-.697v-.43h1.146v.194c0 .531-.243 1.157-.662 1.642l.726.726h-.625l-.42-.413zM88.464 27.963h-1.24v1.659h-1.033V25.31h1.034v1.636h1.24v-1.636h1.027v4.31h-1.028zM92.878 28.051h.827l-.414-1.257-.413 1.257zm-.083-2.74h.992l1.476 4.31h-1.045l-.206-.631h-1.447l-.207.632h-1.04l1.477-4.31zM98.124 26.25v1.282h.396c.372 0 .65-.254.65-.638s-.278-.644-.65-.644h-.396zm-1.033-.939h1.47c1.01 0 1.654.715 1.654 1.577 0 .868-.638 1.6-1.66 1.6h-.43v1.134H97.09v-4.31zM103.152 26.25v1.282h.396c.372 0 .649-.254.649-.638s-.277-.644-.65-.644h-.395zm-1.033-.939h1.47c1.01 0 1.654.715 1.654 1.577 0 .868-.638 1.6-1.66 1.6h-.431v1.134h-1.033v-4.31zM107.902 27.603l-1.346-2.292h1.116l.75 1.3.744-1.3h1.11l-1.34 2.303v2.008h-1.034zM115.405 25.311h.46v3.868h1.926v.443h-2.386zM120.262 29.621h.46v-4.31h-.46zM123.28 25.311h2.44v.437h-1.979v1.494h1.978v.437h-1.978v1.943h-.46zM128.155 25.311h2.616v.437h-2.156v1.494h2.156v.437h-2.156v1.5h2.156v.443h-2.616zM158.992 11.49H143.91a.943.943 0 0 1 0-1.886h15.082a.943.943 0 0 1 0 1.886M16.025 11.49H.943a.943.943 0 0 1 0-1.886h15.082a.943.943 0 0 1 0 1.886"/>
    </g>
</svg>
