<svg xmlns="http://www.w3.org/2000/svg" xmlns:xlink="http://www.w3.org/1999/xlink" width="320" height="39" viewBox="0 0 320 39">
    <defs>
        <path id="a" d="M51.29 18.702c0-9.901 7.568-17.85 17.993-17.85 6.949 0 12.614 3.617 15.613 8.948l-4.522 2.714c-2.237-4.19-6.094-6.712-11.091-6.712-7.521 0-12.805 5.855-12.805 12.9 0 7.093 5.38 12.853 12.853 12.853 6.568 0 10.71-4 11.804-9.616H68.664v-4.903h17.898v1.857c0 9.425-6.426 17.66-17.231 17.66-10.473 0-18.042-8.14-18.042-17.851z"/>
        <path id="b" d="M97.558 1.328h10.806c7.378 0 12.281 4.997 12.281 11.329 0 4.617-2.571 8.997-7.522 10.52l8.283 12.9h-5.95l-10.472-16.565h2.808c5.189 0 7.664-3.666 7.664-6.855 0-3.904-2.522-6.522-7.616-6.522h-5.094v29.942h-5.188V1.327z"/>
        <path id="c" d="M132.974 1.328h20.85V6.23h-15.661v9.948h15.66v4.903h-15.66v10.044h15.66v4.95h-20.849z"/>
        <path id="d" d="M167.248 1.328h20.85V6.23h-15.662v9.948h15.661v4.903h-15.66v10.044h15.66v4.95h-20.85z"/>
        <path id="e" d="M200.569 1.328h5.854l17.613 26.276V1.328h5.141v34.749h-5.474L205.757 9.372v26.705h-5.188z"/>
        <path id="f" d="M243.077 1.328h10.805c7.379 0 12.282 4.997 12.282 11.329 0 4.617-2.57 8.997-7.521 10.52l8.282 12.9h-5.95l-10.472-16.565h2.808c5.189 0 7.664-3.666 7.664-6.855 0-3.904-2.523-6.522-7.616-6.522h-5.093v29.942h-5.189V1.327z"/>
    </defs>
    <g fill="none" fill-rule="evenodd">
        <g transform="translate(0 .5)">
            <use fill="#173E4F" xlink:href="#a"/>
            <path stroke="#FFF" d="M80.515 22.44H68.164v-5.904h18.898v2.357c0 10.292-7.188 18.16-17.731 18.16-10.525 0-18.542-8.137-18.542-18.351 0-10.331 7.946-18.35 18.494-18.35 6.9 0 12.846 3.511 16.048 9.203l.239.424-5.39 3.234-.247-.463c-2.207-4.134-5.953-6.448-10.65-6.448-7.06 0-12.305 5.44-12.305 12.4 0 6.953 5.289 12.353 12.353 12.353 5.839 0 9.912-3.3 11.184-8.616z"/>
        </g>
        <g transform="translate(0 .5)">
            <use fill="#173E4F" xlink:href="#b"/>
            <path stroke="#FFF" d="M113.89 23.445l8.432 13.132h-7.142l-11.104-17.565h3.716c4.38 0 7.164-2.89 7.164-6.355 0-3.788-2.479-6.022-7.116-6.022h-4.594v29.942h-6.188V.827h11.306c7.47 0 12.781 5.047 12.781 11.83 0 4.902-2.709 9.11-7.255 10.788z"/>
        </g>
        <g transform="translate(0 .5)">
            <use fill="#173E4F" xlink:href="#c"/>
            <path stroke="#FFF" d="M138.663 6.73v8.95h15.66v5.902h-15.66v9.044h15.66v5.95h-21.849V.829h21.85V6.73h-15.661z"/>
        </g>
        <g transform="translate(0 .5)">
            <use fill="#173E4F" xlink:href="#d"/>
            <path stroke="#FFF" d="M172.936 6.73v8.95h15.661v5.902h-15.66v9.044h15.66v5.95h-21.85V.829h21.85V6.73h-15.66z"/>
        </g>
        <g transform="translate(0 .5)">
            <use fill="#173E4F" xlink:href="#e"/>
            <path stroke="#FFF" d="M223.536 25.96V.828h6.141v35.749h-6.24l-17.18-25.564v25.564h-6.188V.827h6.621l16.846 25.133z"/>
        </g>
        <g transform="translate(0 .5)">
            <use fill="#173E4F" xlink:href="#f"/>
            <path stroke="#FFF" d="M259.41 23.445l8.43 13.132h-7.14l-11.105-17.565h3.716c4.38 0 7.164-2.89 7.164-6.355 0-3.787-2.479-6.022-7.116-6.022h-4.593v29.942h-6.189V.827h11.305c7.47 0 12.782 5.047 12.782 11.83 0 4.902-2.708 9.11-7.254 10.788z"/>
        </g>
        <path fill="#173E4F" d="M317.985 23.08H287.82a1.885 1.885 0 0 1 0-3.771h30.164a1.885 1.885 0 0 1 0 3.77M32.05 23.08H1.884a1.885 1.885 0 0 1 0-3.771h30.164a1.885 1.885 0 0 1 0 3.77"/>
    </g>
</svg>
