<svg xmlns="http://www.w3.org/2000/svg" width="202" height="10" viewBox="0 0 202 10">
    <g fill="#173E4F" fill-rule="evenodd">
        <path d="M2.869 6.285H6.14L4.5 1.963l-1.63 4.322zM4.002.722h.992l3.272 8.622h-.957l-.838-2.185H2.538l-.826 2.185h-.97L4.003.722zM22.99 6.026h-2.48v3.318h-2.067V.722h2.067v3.272h2.48V.722h2.055v8.622H22.99zM28.947.722h5.114v1.914H31v1.417h3.06v1.913H31V7.43h3.06v1.912h-5.114zM40.785 6.203h1.654l-.827-2.516-.827 2.516zM40.62.723h1.983l2.953 8.62h-2.09l-.413-1.263h-2.894l-.414 1.263h-2.078L40.62.723zM49.211.722h2.067v6.65h2.81v1.971h-4.877zM58.13 2.647h-2.149V.723h6.284v1.924h-2.127v6.697h-2.007zM70.62 6.026h-2.48v3.318h-2.068V.722h2.068v3.272h2.48V.722h2.054v8.622h-2.055zM78.985 5.305L76.293.723h2.232l1.5 2.597L81.513.723h2.22l-2.68 4.605v4.016h-2.068zM99.012 7.95L96.39 5.328c-.212-.213-.413-.414-.59-.602-.768.437-1.205 1.063-1.205 1.937 0 .933.756 1.995 2.432 1.995.756 0 1.43-.27 1.985-.708zm.567.567c-.709.579-1.571.957-2.552.957-2.408 0-3.353-1.512-3.353-2.799 0-1.158.65-2.067 1.594-2.587-.33-.449-.508-.91-.508-1.476 0-1.086.838-2.007 2.22-2.007 1.051 0 1.736.53 2.114 1.122l-.755.495c-.26-.413-.673-.815-1.359-.815-.779 0-1.275.555-1.275 1.205 0 .72.402 1.146 1.429 2.185l2.516 2.527a4.613 4.613 0 0 0 .992-2.244h-1.394v-.862h2.292v.39c0 1.062-.485 2.315-1.324 3.283l1.453 1.453h-1.252l-.838-.827zM116.429 6.026h-2.48v3.318h-2.067V.722h2.067v3.272h2.48V.722h2.055v8.622h-2.055zM125.256 6.203h1.653l-.826-2.516-.827 2.516zm-.166-5.48h1.984l2.953 8.62h-2.09l-.414-1.263h-2.893l-.414 1.263h-2.078l2.952-8.62zM135.748 2.6v2.563h.792c.744 0 1.299-.508 1.299-1.276 0-.767-.555-1.287-1.3-1.287h-.79zM133.682.722h2.94c2.02 0 3.308 1.43 3.308 3.154 0 1.736-1.276 3.2-3.32 3.2h-.862v2.268h-2.066V.722zM145.804 2.6v2.563h.791c.744 0 1.3-.508 1.3-1.276 0-.767-.556-1.287-1.3-1.287h-.791zM143.737.722h2.94c2.02 0 3.308 1.43 3.308 3.154 0 1.736-1.275 3.2-3.319 3.2h-.862v2.268h-2.067V.722zM155.304 5.305L152.61.723h2.232l1.5 2.597 1.488-2.597h2.22l-2.68 4.605v4.016h-2.067zM170.31.722h.922v7.735h3.85v.886h-4.772zM180.023 9.343h.92V.722h-.92zM186.06.722h4.878v.874h-3.956v2.988h3.956v.874h-3.956v3.885h-.921zM195.81.722h5.231v.874h-4.311v2.988h4.311v.874h-4.311v3h4.311v.885h-5.232z"/>
    </g>
</svg>
