<svg xmlns="http://www.w3.org/2000/svg" width="16" height="17" viewBox="0 0 16 17">
    <path fill="#FFF" fill-rule="evenodd" d="M9.532 10.482a2.477 2.477 0 0 0 .754-1.818c0-.71-.251-1.316-.754-1.818a2.477 2.477 0 0 0-1.818-.753c-.71 0-1.316.25-1.818.753a2.477 2.477 0 0 0-.753 1.818c0 .71.251 1.316.753 1.818a2.477 2.477 0 0 0 1.818.753c.71 0 1.316-.25 1.818-.753zm.985-4.62c.77.77 1.155 1.704 1.155 2.802s-.385 2.032-1.155 2.802-1.704 1.156-2.803 1.156c-1.098 0-2.032-.385-2.802-1.156-.77-.77-1.155-1.704-1.155-2.802s.385-2.032 1.155-2.802 1.704-1.156 2.802-1.156c1.099 0 2.033.385 2.803 1.156zm1.968-1.97a.89.89 0 0 1 .272.654.89.89 0 0 1-.272.653.89.89 0 0 1-.652.27.89.89 0 0 1-.653-.27.89.89 0 0 1-.272-.653.89.89 0 0 1 .272-.653.89.89 0 0 1 .653-.271.89.89 0 0 1 .652.27zM8.478 2.337h-.764l-.768-.005a54.492 54.492 0 0 0-1.06 0c-.24.003-.564.013-.97.03a7.96 7.96 0 0 0-1.034.1c-.284.05-.524.113-.718.186-.335.134-.63.328-.884.583-.254.254-.449.549-.582.884a4.027 4.027 0 0 0-.186.718 7.96 7.96 0 0 0-.1 1.035c-.017.405-.028.728-.03.969-.004.24-.004.594 0 1.06l.004.768-.005.768c-.003.466-.003.819 0 1.06.003.241.014.564.03.97.017.405.05.75.1 1.034.05.285.113.524.187.718.133.335.328.63.582.884.255.255.55.449.884.583.194.073.434.135.718.186.285.05.63.083 1.035.1.405.017.728.027.97.03.24.003.593.003 1.059 0l.768-.005.769.005c.465.003.818.003 1.06 0 .24-.003.564-.013.969-.03a7.96 7.96 0 0 0 1.034-.1c.285-.05.524-.113.719-.186.334-.134.629-.328.883-.583.255-.254.45-.549.583-.884.074-.194.136-.433.186-.718.05-.285.084-.63.1-1.035.017-.405.027-.728.03-.969.004-.241.004-.594 0-1.06l-.005-.768.005-.768c.004-.466.004-.82 0-1.06a37.222 37.222 0 0 0-.03-.97 7.959 7.959 0 0 0-.1-1.034 4.027 4.027 0 0 0-.186-.718 2.606 2.606 0 0 0-.583-.884 2.606 2.606 0 0 0-.883-.583 4.027 4.027 0 0 0-.719-.186 7.96 7.96 0 0 0-1.034-.1 37.213 37.213 0 0 0-.97-.03 41.044 41.044 0 0 0-1.064.005zm6.9 3.144c.034.59.05 1.65.05 3.184 0 1.533-.016 2.595-.05 3.184-.067 1.393-.482 2.471-1.245 3.234-.764.764-1.842 1.18-3.235 1.246-.589.034-1.65.05-3.184.05-1.533 0-2.595-.016-3.184-.05-1.393-.067-2.47-.482-3.234-1.246C.532 14.32.117 13.241.05 11.848c-.033-.59-.05-1.65-.05-3.184C0 7.13.017 6.069.05 5.48c.067-1.393.482-2.471 1.246-3.235C2.059 1.482 3.137 1.067 4.53 1 5.12.966 6.18.95 7.714.95c1.534 0 2.595.016 3.184.05 1.393.067 2.471.482 3.235 1.245.763.764 1.178 1.842 1.245 3.235z"/>
</svg>
