<svg xmlns="http://www.w3.org/2000/svg" width="26" height="26" viewBox="0 0 26 26">
    <path fill="#173E4F" fill-rule="evenodd" d="M15.793 15.73c.802-.802 1.203-1.77 1.203-2.904s-.401-2.102-1.203-2.904c-.803-.802-1.77-1.204-2.904-1.204s-2.102.402-2.905 1.204c-.802.802-1.203 1.77-1.203 2.904s.401 2.102 1.203 2.904c.803.802 1.77 1.203 2.905 1.203 1.133 0 2.101-.4 2.904-1.203zm1.572-7.38c1.23 1.23 1.845 2.722 1.845 4.476s-.615 3.246-1.845 4.476-2.722 1.846-4.476 1.846c-1.755 0-3.247-.615-4.477-1.846-1.23-1.23-1.845-2.722-1.845-4.476s.615-3.246 1.845-4.477c1.23-1.23 2.722-1.845 4.477-1.845 1.754 0 3.246.615 4.476 1.845zm3.145-3.145c.289.288.433.636.433 1.043 0 .406-.144.754-.433 1.042a1.422 1.422 0 0 1-1.043.434c-.406 0-.754-.145-1.043-.434a1.422 1.422 0 0 1-.433-1.042c0-.407.144-.755.433-1.043a1.422 1.422 0 0 1 1.043-.434c.406 0 .754.145 1.043.434zm-6.402-2.487h-1.22l-1.227-.008a87.043 87.043 0 0 0-1.693 0c-.385.005-.9.021-1.548.048-.647.027-1.198.08-1.653.16-.454.08-.837.18-1.147.297a4.163 4.163 0 0 0-1.412.93 4.163 4.163 0 0 0-.93 1.413c-.118.31-.217.692-.297 1.147-.08.454-.134 1.005-.16 1.652a59.46 59.46 0 0 0-.049 1.549c-.005.385-.005.95 0 1.693.006.743.008 1.152.008 1.227 0 .075-.002.484-.008 1.227a87.179 87.179 0 0 0 0 1.693c.006.385.022.901.048 1.548.027.648.08 1.198.16 1.653.081.455.18.837.298 1.147.214.535.524 1.006.93 1.412.407.407.877.717 1.412.93.31.119.693.217 1.147.298.455.08 1.006.133 1.653.16.647.027 1.163.043 1.548.048.385.006.95.006 1.693 0l1.228-.008 1.227.008c.743.006 1.308.006 1.693 0 .385-.005.9-.021 1.548-.048.647-.027 1.198-.08 1.653-.16.454-.08.837-.18 1.147-.297a4.163 4.163 0 0 0 1.412-.93c.406-.407.717-.878.93-1.413.118-.31.217-.692.297-1.147.08-.455.134-1.005.16-1.653.028-.647.044-1.163.049-1.548.005-.385.005-.95 0-1.693l-.008-1.227.008-1.227c.005-.744.005-1.308 0-1.693a59.453 59.453 0 0 0-.048-1.549 12.717 12.717 0 0 0-.16-1.652 6.434 6.434 0 0 0-.298-1.147 4.163 4.163 0 0 0-.93-1.412 4.163 4.163 0 0 0-1.412-.931 6.434 6.434 0 0 0-1.147-.297 12.715 12.715 0 0 0-1.653-.16 59.442 59.442 0 0 0-1.548-.048 65.562 65.562 0 0 0-1.701.008zM25.131 7.74c.053.941.08 2.636.08 5.086s-.027 4.145-.08 5.086c-.107 2.225-.77 3.947-1.99 5.167-1.22 1.22-2.941 1.882-5.166 1.99-.941.053-2.637.08-5.086.08-2.45 0-4.145-.027-5.087-.08-2.225-.108-3.947-.77-5.166-1.99-1.22-1.22-1.883-2.942-1.99-5.167-.053-.941-.08-2.637-.08-5.086 0-2.45.027-4.145.08-5.086.107-2.225.77-3.947 1.99-5.167C3.856 1.353 5.577.691 7.802.583 8.744.53 10.44.504 12.89.504c2.45 0 4.145.027 5.086.08 2.225.108 3.947.77 5.166 1.99 1.22 1.22 1.883 2.942 1.99 5.167z"/>
</svg>
