<svg xmlns="http://www.w3.org/2000/svg" width="163" height="115" viewBox="0 0 163 115">
    <g fill="none" fill-rule="evenodd">
        <text fill="#173E4F" font-family="Avenir-Heavy, Avenir" font-size="48" font-weight="600" transform="translate(0 -2.27)">
            <tspan x=".755" y="48.662">95%</tspan>
        </text>
        <text fill="#173E4F" font-family="Avenir-Oblique, Avenir" font-size="19.2" font-style="italic" letter-spacing="2.8" transform="translate(0 -2.27)">
            <tspan x=".755" y="115.8">LAND IS USED</tspan>
        </text>
        <path fill="#000" d="M130.995.872c-.4 0-.64.24-.64.64s.24.64.64.64.64-.32.64-.64c0-.4-.32-.64-.64-.64zm2.56 0c-.4 0-.64.24-.64.64s.32.64.64.64.64-.32.64-.64c0-.4-.32-.64-.64-.64zm-2.56 2.56c-.4 0-.64.32-.64.64s.24.64.64.64.64-.32.64-.64-.32-.64-.64-.64zm2.56 0c-.4 0-.64.32-.64.64s.32.64.64.64.64-.32.64-.64-.32-.64-.64-.64zm2.56 0c-.32 0-.64.32-.64.64s.32.64.64.64c.4 0 .72-.32.72-.64s-.32-.64-.72-.64zm-7.76 2.56c-.4 0-.64.32-.64.64 0 .4.32.64.64.64.4 0 .64-.32.64-.64s-.24-.64-.64-.64zm2.64 0c-.4 0-.64.32-.64.64 0 .4.24.64.64.64s.64-.32.64-.64-.32-.64-.64-.64zm2.56 0c-.4 0-.64.32-.64.64 0 .4.32.64.64.64s.64-.32.64-.64-.32-.64-.64-.64zm2.56 0c-.32 0-.64.32-.64.64 0 .4.32.64.64.64.4 0 .72-.32.72-.64s-.32-.64-.72-.64zm2.64 0c-.4 0-.64.32-.64.64 0 .4.32.64.64.64.4 0 .64-.32.64-.64s-.32-.64-.64-.64zm2.56 0c-.4 0-.64.32-.64.64 0 .4.24.64.64.64s.64-.32.64-.64-.32-.64-.64-.64zm2.56 0c-.4 0-.64.32-.64.64 0 .4.32.64.64.64s.64-.32.64-.64-.32-.64-.64-.64zm-28.4 2.64c-.4 0-.72.32-.72.64 0 .4.32.64.72.64.32 0 .64-.24.64-.64s-.32-.64-.64-.64zm2.56 0c-.32 0-.64.32-.64.64 0 .4.32.64.64.64.4 0 .64-.24.64-.64s-.32-.64-.64-.64zm5.2 0c-.4 0-.64.24-.64.64s.24.64.64.64c.32 0 .64-.24.64-.64s-.32-.64-.64-.64zm2.56 0c-.4 0-.72.24-.72.64s.32.64.72.64c.32 0 .64-.24.64-.64s-.32-.64-.64-.64zm2.56 0c-.4 0-.64.24-.64.64s.32.64.64.64c.4 0 .64-.24.64-.64s-.24-.64-.64-.64zm2.64 0c-.4 0-.64.24-.64.64s.24.64.64.64.64-.24.64-.64-.32-.64-.64-.64zm2.56 0c-.4 0-.64.24-.64.64s.32.64.64.64.64-.24.64-.64-.32-.64-.64-.64zm2.56 0c-.32 0-.64.24-.64.64s.32.64.64.64c.4 0 .72-.24.72-.64s-.32-.64-.72-.64zm2.64 0c-.4 0-.64.24-.64.64s.32.64.64.64c.4 0 .64-.24.64-.64s-.32-.64-.64-.64zm2.56 0c-.4 0-.64.24-.64.64s.24.64.64.64.64-.24.64-.64-.32-.64-.64-.64zm2.56 0c-.4 0-.64.24-.64.64s.32.64.64.64.64-.24.64-.64-.32-.64-.64-.64zm2.64 0c-.32 0-.64.24-.64.64s.32.64.64.64c.4 0 .64-.24.64-.64s-.32-.64-.64-.64zm-25.92 2.56c-.4 0-.64.32-.64.64s.32.64.64.64.64-.24.64-.64-.24-.64-.64-.64zm31.04 0c-.4 0-.64.24-.64.64s.24.64.64.64.64-.24.64-.64-.24-.64-.64-.64zm2.56 0c-.4 0-.64.24-.64.64s.32.64.64.64.64-.24.64-.64-.24-.64-.64-.64zm-38.72 0c-.4 0-.72.24-.72.64s.32.64.72.64c.32 0 .64-.24.64-.64s-.32-.64-.64-.64zm2.56 0c-.32 0-.64.24-.64.64s.32.64.64.64c.4 0 .64-.24.64-.64s-.32-.64-.64-.64zm5.2 0c-.4 0-.64.24-.64.64s.24.64.64.64c.32 0 .64-.24.64-.64s-.32-.64-.64-.64zm2.56 0c-.4 0-.72.24-.72.64s.32.64.72.64c.32 0 .64-.24.64-.64s-.32-.64-.64-.64zm2.56 0c-.4 0-.64.24-.64.64s.32.64.64.64c.4 0 .64-.24.64-.64s-.24-.64-.64-.64zm2.64 0c-.4 0-.64.24-.64.64s.24.64.64.64.64-.24.64-.64-.32-.64-.64-.64zm2.56 0c-.4 0-.64.24-.64.64s.32.64.64.64.64-.24.64-.64-.32-.64-.64-.64zm2.56 0c-.32 0-.64.24-.64.64s.32.64.64.64c.4 0 .72-.24.72-.64s-.32-.64-.72-.64zm2.64 0c-.4 0-.64.24-.64.64s.32.64.64.64c.4 0 .64-.24.64-.64s-.32-.64-.64-.64zm2.56 0c-.4 0-.64.24-.64.64s.24.64.64.64.64-.24.64-.64-.32-.64-.64-.64zm2.56 0c-.4 0-.64.24-.64.64s.32.64.64.64.64-.24.64-.64-.32-.64-.64-.64zm2.64 0c-.32 0-.64.24-.64.64s.32.64.64.64c.4 0 .64-.24.64-.64s-.32-.64-.64-.64zm2.56 0c-.4 0-.64.24-.64.64s.24.64.64.64.64-.24.64-.64-.32-.64-.64-.64zm-28.48 2.56c-.4 0-.64.32-.64.64s.32.64.64.64.64-.32.64-.64-.24-.64-.64-.64zm31.04 0c-.4 0-.64.32-.64.64s.24.64.64.64.64-.32.64-.64-.24-.64-.64-.64zm2.56 0c-.4 0-.64.32-.64.64s.32.64.64.64.64-.32.64-.64-.24-.64-.64-.64zm2.64 0c-.32 0-.64.32-.64.64s.32.64.64.64c.4 0 .72-.32.72-.64-.08-.32-.4-.64-.72-.64zm-49.12.08c-.32 0-.64.32-.64.64 0 .4.32.64.64.64.4 0 .64-.32.64-.64 0-.4-.32-.64-.64-.64zm2.56 0c-.4 0-.64.32-.64.64 0 .4.24.64.64.64s.64-.32.64-.64c0-.4-.32-.64-.64-.64zm2.64 0c-.4 0-.64.32-.64.64 0 .4.32.64.64.64.4 0 .64-.32.64-.64-.08-.4-.32-.64-.64-.64zm2.56 0c-.4 0-.72.32-.72.64 0 .4.32.64.72.64.32 0 .64-.32.64-.64 0-.4-.32-.64-.64-.64zm2.56 0c-.32 0-.64.32-.64.64 0 .4.32.64.64.64.4 0 .64-.32.64-.64 0-.4-.32-.64-.64-.64zm5.2 0c-.4 0-.64.32-.64.64 0 .4.24.64.64.64.32 0 .64-.32.64-.64 0-.4-.32-.64-.64-.64zm2.56 0c-.4 0-.72.32-.72.64 0 .4.32.64.72.64.32 0 .64-.32.64-.64 0-.4-.32-.64-.64-.64zm2.56 0c-.4 0-.64.32-.64.64 0 .4.32.64.64.64.4 0 .64-.32.64-.64 0-.4-.24-.64-.64-.64zm2.64 0c-.4 0-.64.32-.64.64 0 .4.24.64.64.64s.64-.32.64-.64c0-.4-.32-.64-.64-.64zm2.56 0c-.4 0-.64.32-.64.64 0 .4.32.64.64.64s.64-.32.64-.64c0-.4-.32-.64-.64-.64zm2.56 0c-.32 0-.64.32-.64.64 0 .4.32.64.64.64.4 0 .72-.32.72-.64 0-.4-.32-.64-.72-.64zm2.64 0c-.4 0-.64.32-.64.64 0 .4.32.64.64.64.4 0 .64-.32.64-.64 0-.4-.32-.64-.64-.64zm2.56 0c-.4 0-.64.32-.64.64 0 .4.24.64.64.64s.64-.32.64-.64c0-.4-.32-.64-.64-.64zm2.56 0c-.4 0-.64.32-.64.64 0 .4.32.64.64.64s.64-.32.64-.64c0-.4-.32-.64-.64-.64zm2.64 0c-.32 0-.64.32-.64.64 0 .4.32.64.64.64.4 0 .64-.32.64-.64 0-.4-.32-.64-.64-.64zm2.56 0c-.4 0-.64.32-.64.64 0 .4.24.64.64.64s.64-.32.64-.64c0-.4-.32-.64-.64-.64zm-28.48 2.48c-.4 0-.64.32-.64.64s.32.64.64.64.64-.32.64-.64-.24-.64-.64-.64zm31.04 0c-.4 0-.64.32-.64.64 0 .4.24.64.64.64s.64-.32.64-.64-.24-.64-.64-.64zm2.56 0c-.4 0-.64.32-.64.64 0 .4.32.64.64.64s.64-.32.64-.64-.24-.64-.64-.64zm-49.04 0c-.4 0-.64.32-.64.64 0 .4.32.64.64.64s.64-.32.64-.64-.32-.64-.64-.64zm2.56 0c-.32 0-.64.32-.64.64 0 .4.32.64.64.64.4 0 .64-.32.64-.64s-.32-.64-.64-.64zm2.56 0c-.4 0-.64.32-.64.64 0 .4.24.64.64.64s.64-.32.64-.64-.32-.64-.64-.64zm2.64 0c-.4 0-.64.32-.64.64 0 .4.32.64.64.64.4 0 .64-.32.64-.64-.08-.32-.32-.64-.64-.64zm2.56 0c-.4 0-.72.32-.72.64 0 .4.32.64.72.64.32 0 .64-.32.64-.64s-.32-.64-.64-.64zm2.56 0c-.32 0-.64.32-.64.64 0 .4.32.64.64.64.4 0 .64-.32.64-.64s-.32-.64-.64-.64zm5.2 0c-.4 0-.64.32-.64.64 0 .4.24.64.64.64.32 0 .64-.32.64-.64s-.32-.64-.64-.64zm2.56 0c-.4 0-.72.32-.72.64 0 .4.32.64.72.64.32 0 .64-.32.64-.64s-.32-.64-.64-.64zm2.56 0c-.4 0-.64.32-.64.64 0 .4.32.64.64.64.4 0 .64-.32.64-.64s-.24-.64-.64-.64zm2.64 0c-.4 0-.64.32-.64.64 0 .4.24.64.64.64s.64-.32.64-.64-.32-.64-.64-.64zm2.56 0c-.4 0-.64.32-.64.64 0 .4.32.64.64.64s.64-.32.64-.64-.32-.64-.64-.64zm2.56 0c-.32 0-.64.32-.64.64 0 .4.32.64.64.64.4 0 .72-.32.72-.64s-.32-.64-.72-.64zm2.64 0c-.4 0-.64.32-.64.64 0 .4.32.64.64.64.4 0 .64-.32.64-.64s-.32-.64-.64-.64zm2.56 0c-.4 0-.64.32-.64.64 0 .4.24.64.64.64s.64-.32.64-.64-.32-.64-.64-.64zm2.56 0c-.4 0-.64.32-.64.64 0 .4.32.64.64.64s.64-.32.64-.64-.32-.64-.64-.64zm2.64 0c-.32 0-.64.32-.64.64 0 .4.32.64.64.64.4 0 .64-.32.64-.64s-.32-.64-.64-.64zm2.56 0c-.4 0-.64.32-.64.64 0 .4.24.64.64.64s.64-.32.64-.64-.32-.64-.64-.64zm-28.48 2.64c-.4 0-.64.32-.64.64s.32.64.64.64.64-.24.64-.64-.24-.64-.64-.64zm-15.44 0c-.4 0-.64.32-.64.64s.32.64.64.64.64-.24.64-.64-.32-.64-.64-.64zm2.56 0c-.32 0-.64.32-.64.64s.32.64.64.64c.4 0 .64-.24.64-.64s-.32-.64-.64-.64zm2.56 0c-.4 0-.64.32-.64.64s.24.64.64.64.64-.24.64-.64-.32-.64-.64-.64zm2.64 0c-.4 0-.64.32-.64.64s.32.64.64.64c.4 0 .64-.24.64-.64s-.32-.64-.64-.64zm2.56 0c-.4 0-.72.32-.72.64s.32.64.72.64c.32 0 .64-.24.64-.64s-.32-.64-.64-.64zm2.56 0c-.32 0-.64.32-.64.64s.32.64.64.64c.4 0 .64-.24.64-.64s-.32-.64-.64-.64zm5.2 0c-.4 0-.64.32-.64.64s.24.64.64.64c.32 0 .64-.24.64-.64s-.32-.64-.64-.64zm2.56 0c-.4 0-.72.32-.72.64s.32.64.72.64c.32 0 .64-.24.64-.64s-.32-.64-.64-.64zm2.56 0c-.4 0-.64.32-.64.64s.32.64.64.64c.4 0 .64-.24.64-.64s-.24-.64-.64-.64zm2.64 0c-.4 0-.64.32-.64.64s.24.64.64.64.64-.24.64-.64-.32-.64-.64-.64zm2.56 0c-.4 0-.64.32-.64.64s.32.64.64.64.64-.24.64-.64-.32-.64-.64-.64zm2.56 0c-.32 0-.64.32-.64.64s.32.64.64.64c.4 0 .72-.24.72-.64s-.32-.64-.72-.64zm2.64 0c-.4 0-.64.32-.64.64s.32.64.64.64c.4 0 .64-.24.64-.64s-.32-.64-.64-.64zm2.56 0c-.4 0-.64.32-.64.64s.24.64.64.64.64-.24.64-.64-.32-.64-.64-.64zm2.56 0c-.4 0-.64.32-.64.64s.32.64.64.64.64-.24.64-.64-.32-.64-.64-.64zm2.64 0c-.32 0-.64.32-.64.64s.32.64.64.64c.4 0 .64-.24.64-.64s-.32-.64-.64-.64zm2.56 0c-.4 0-.64.32-.64.64s.24.64.64.64.64-.24.64-.64-.32-.64-.64-.64zm2.56 0c-.4 0-.64.24-.64.64s.24.64.64.64.64-.24.64-.64-.24-.64-.64-.64zm2.56 0c-.4 0-.64.24-.64.64s.32.64.64.64.64-.24.64-.64-.24-.64-.64-.64zm-33.6 2.56c-.4 0-.64.32-.64.64s.32.64.64.64.64-.24.64-.64-.24-.64-.64-.64zm-10.32 0c-.4 0-.64.32-.64.64s.24.64.64.64.64-.32.64-.64-.32-.64-.64-.64zm2.64 0c-.4 0-.64.32-.64.64s.32.64.64.64c.4 0 .64-.32.64-.64-.08-.32-.32-.64-.64-.64zm2.56 0c-.4 0-.72.32-.72.64s.32.64.72.64c.32 0 .64-.32.64-.64s-.32-.64-.64-.64zm2.56 0c-.32 0-.64.32-.64.64s.32.64.64.64c.4 0 .64-.32.64-.64s-.32-.64-.64-.64zm33.6 0c-.4 0-.64.24-.64.64s.24.64.64.64.64-.24.64-.64-.24-.64-.64-.64zm2.56 0c-.4 0-.64.24-.64.64s.32.64.64.64.64-.24.64-.64-.24-.64-.64-.64zm-30.96 0c-.4 0-.64.24-.64.64 0 .32.24.64.64.64.32 0 .64-.32.64-.64s-.32-.64-.64-.64zm2.56 0c-.4 0-.72.24-.72.64 0 .32.32.64.72.64.32 0 .64-.32.64-.64s-.32-.64-.64-.64zm2.56 0c-.4 0-.64.24-.64.64 0 .32.32.64.64.64.4 0 .64-.32.64-.64s-.24-.64-.64-.64zm2.64 0c-.4 0-.64.24-.64.64 0 .32.24.64.64.64s.64-.32.64-.64-.32-.64-.64-.64zm2.56 0c-.4 0-.64.24-.64.64 0 .32.32.64.64.64s.64-.32.64-.64-.32-.64-.64-.64zm2.56 0c-.32 0-.64.24-.64.64 0 .32.32.64.64.64.4 0 .72-.32.72-.64s-.32-.64-.72-.64zm2.64 0c-.4 0-.64.24-.64.64 0 .32.32.64.64.64.4 0 .64-.32.64-.64s-.32-.64-.64-.64zm2.56 0c-.4 0-.64.24-.64.64 0 .32.24.64.64.64s.64-.32.64-.64-.32-.64-.64-.64zm2.56 0c-.4 0-.64.24-.64.64 0 .32.32.64.64.64s.64-.32.64-.64-.32-.64-.64-.64zm2.64 0c-.32 0-.64.24-.64.64 0 .32.32.64.64.64.4 0 .64-.32.64-.64s-.32-.64-.64-.64zm2.56 0c-.4 0-.64.24-.64.64 0 .32.24.64.64.64s.64-.32.64-.64-.32-.64-.64-.64zm-28.48 2.56c-.4 0-.64.32-.64.64s.32.64.64.64.64-.32.64-.64-.24-.64-.64-.64zm-10.32 0c-.4 0-.64.32-.64.64 0 .4.24.64.64.64s.64-.32.64-.64-.32-.64-.64-.64zm2.64 0c-.4 0-.64.32-.64.64 0 .4.32.64.64.64.4 0 .64-.32.64-.64-.08-.32-.32-.64-.64-.64zm2.56 0c-.4 0-.72.32-.72.64 0 .4.32.64.72.64.32 0 .64-.32.64-.64s-.32-.64-.64-.64zm2.56 0c-.32 0-.64.32-.64.64 0 .4.32.64.64.64.4 0 .64-.32.64-.64s-.32-.64-.64-.64zm33.6 0c-.4 0-.64.32-.64.64s.24.64.64.64.64-.32.64-.64-.24-.64-.64-.64zm-28.4.08c-.4 0-.64.32-.64.64 0 .4.24.64.64.64.32 0 .64-.32.64-.64 0-.4-.32-.64-.64-.64zm2.56 0c-.4 0-.72.32-.72.64 0 .4.32.64.72.64.32 0 .64-.32.64-.64 0-.4-.32-.64-.64-.64zm2.56 0c-.4 0-.64.32-.64.64 0 .4.32.64.64.64.4 0 .64-.32.64-.64 0-.4-.24-.64-.64-.64zm2.64 0c-.4 0-.64.32-.64.64 0 .4.24.64.64.64s.64-.32.64-.64c0-.4-.32-.64-.64-.64zm2.56 0c-.4 0-.64.32-.64.64 0 .4.32.64.64.64s.64-.32.64-.64c0-.4-.32-.64-.64-.64zm2.56 0c-.32 0-.64.32-.64.64 0 .4.32.64.64.64.4 0 .72-.32.72-.64 0-.4-.32-.64-.72-.64zm2.64 0c-.4 0-.64.32-.64.64 0 .4.32.64.64.64.4 0 .64-.32.64-.64 0-.4-.32-.64-.64-.64zm2.56 0c-.4 0-.64.32-.64.64 0 .4.24.64.64.64s.64-.32.64-.64c0-.4-.32-.64-.64-.64zm2.56 0c-.4 0-.64.32-.64.64 0 .4.32.64.64.64s.64-.32.64-.64c0-.4-.32-.64-.64-.64zm2.64 0c-.32 0-.64.32-.64.64 0 .4.32.64.64.64.4 0 .64-.32.64-.64 0-.4-.32-.64-.64-.64zm2.56 0c-.4 0-.64.32-.64.64 0 .4.24.64.64.64s.64-.32.64-.64c0-.4-.32-.64-.64-.64zm-28.48 2.48c-.4 0-.64.32-.64.64 0 .4.32.64.64.64s.64-.32.64-.64-.24-.64-.64-.64zm31.04 0c-.4 0-.64.32-.64.64 0 .4.24.64.64.64s.64-.32.64-.64-.24-.64-.64-.64zm-36.16.08c-.4 0-.72.32-.72.64 0 .4.32.64.72.64.32 0 .64-.24.64-.64s-.32-.64-.64-.64zm2.56 0c-.32 0-.64.32-.64.64 0 .4.32.64.64.64.4 0 .64-.24.64-.64s-.32-.64-.64-.64zm5.2 0c-.4 0-.64.32-.64.64 0 .4.24.64.64.64.32 0 .64-.32.64-.64 0-.4-.32-.64-.64-.64zm2.56 0c-.4 0-.72.32-.72.64 0 .4.32.64.72.64.32 0 .64-.32.64-.64 0-.4-.32-.64-.64-.64zm2.56 0c-.4 0-.64.32-.64.64 0 .4.32.64.64.64.4 0 .64-.32.64-.64 0-.4-.24-.64-.64-.64zm2.64 0c-.4 0-.64.32-.64.64 0 .4.24.64.64.64s.64-.32.64-.64c0-.4-.32-.64-.64-.64zm2.56 0c-.4 0-.64.32-.64.64 0 .4.32.64.64.64s.64-.32.64-.64c0-.4-.32-.64-.64-.64zm2.56 0c-.32 0-.64.32-.64.64 0 .4.32.64.64.64.4 0 .72-.32.72-.64 0-.4-.32-.64-.72-.64zm2.64 0c-.4 0-.64.32-.64.64 0 .4.32.64.64.64.4 0 .64-.32.64-.64 0-.4-.32-.64-.64-.64zm2.56 0c-.4 0-.64.32-.64.64 0 .4.24.64.64.64s.64-.32.64-.64c0-.4-.32-.64-.64-.64zm2.56 0c-.4 0-.64.32-.64.64 0 .4.32.64.64.64s.64-.32.64-.64c0-.4-.32-.64-.64-.64zm2.64 0c-.32 0-.64.32-.64.64 0 .4.32.64.64.64.4 0 .64-.32.64-.64 0-.4-.32-.64-.64-.64zm2.56 0c-.4 0-.64.32-.64.64 0 .4.24.64.64.64s.64-.32.64-.64c0-.4-.32-.64-.64-.64zm-28.48 2.56c-.4 0-.64.24-.64.64s.32.64.64.64.64-.24.64-.64-.24-.64-.64-.64zm31.04 0c-.4 0-.64.24-.64.64s.24.64.64.64.64-.32.64-.64-.24-.64-.64-.64zm-33.6 0c-.32 0-.64.24-.64.64s.32.64.64.64c.4 0 .64-.32.64-.64s-.32-.64-.64-.64zm5.2 0c-.4 0-.64.24-.64.64s.24.64.64.64c.32 0 .64-.32.64-.64s-.32-.64-.64-.64zm2.56 0c-.4 0-.72.24-.72.64s.32.64.72.64c.32 0 .64-.32.64-.64s-.32-.64-.64-.64zm2.56 0c-.4 0-.64.24-.64.64s.32.64.64.64c.4 0 .64-.32.64-.64s-.24-.64-.64-.64zm2.64 0c-.4 0-.64.24-.64.64s.24.64.64.64.64-.32.64-.64-.32-.64-.64-.64zm2.56 0c-.4 0-.64.24-.64.64s.32.64.64.64.64-.32.64-.64-.32-.64-.64-.64zm2.56 0c-.32 0-.64.24-.64.64s.32.64.64.64c.4 0 .72-.32.72-.64s-.32-.64-.72-.64zm2.64 0c-.4 0-.64.24-.64.64s.32.64.64.64c.4 0 .64-.32.64-.64s-.32-.64-.64-.64zm2.56 0c-.4 0-.64.24-.64.64s.24.64.64.64.64-.32.64-.64-.32-.64-.64-.64zm2.56 0c-.4 0-.64.24-.64.64s.32.64.64.64.64-.32.64-.64-.32-.64-.64-.64zm2.64 0c-.32 0-.64.24-.64.64s.32.64.64.64c.4 0 .64-.32.64-.64s-.32-.64-.64-.64zm2.56 0c-.4 0-.64.24-.64.64s.24.64.64.64.64-.32.64-.64-.32-.64-.64-.64zm-28.48 2.56c-.4 0-.64.24-.64.64s.32.64.64.64.64-.32.64-.64-.24-.64-.64-.64zm31.04 0c-.4 0-.64.32-.64.64s.24.64.64.64.64-.32.64-.64-.24-.64-.64-.64zm-33.6 0c-.32 0-.64.32-.64.64s.32.64.64.64c.4 0 .64-.32.64-.64s-.32-.64-.64-.64zm5.2 0c-.4 0-.64.32-.64.64s.24.64.64.64c.32 0 .64-.32.64-.64s-.32-.64-.64-.64zm2.56 0c-.4 0-.72.32-.72.64s.32.64.72.64c.32 0 .64-.32.64-.64s-.32-.64-.64-.64zm2.56 0c-.4 0-.64.32-.64.64s.32.64.64.64c.4 0 .64-.32.64-.64s-.24-.64-.64-.64zm2.64 0c-.4 0-.64.32-.64.64s.24.64.64.64.64-.32.64-.64-.32-.64-.64-.64zm2.56 0c-.4 0-.64.32-.64.64s.32.64.64.64.64-.32.64-.64-.32-.64-.64-.64zm2.56 0c-.32 0-.64.32-.64.64s.32.64.64.64c.4 0 .72-.32.72-.64s-.32-.64-.72-.64zm2.64 0c-.4 0-.64.32-.64.64s.32.64.64.64c.4 0 .64-.32.64-.64s-.32-.64-.64-.64zm2.56 0c-.4 0-.64.32-.64.64s.24.64.64.64.64-.32.64-.64-.32-.64-.64-.64zm2.56 0c-.4 0-.64.32-.64.64s.32.64.64.64.64-.32.64-.64-.32-.64-.64-.64zm2.64 0c-.32 0-.64.32-.64.64s.32.64.64.64c.4 0 .64-.32.64-.64s-.32-.64-.64-.64zm2.56 0c-.4 0-.64.32-.64.64s.24.64.64.64.64-.32.64-.64-.32-.64-.64-.64zm-28.48 2.64c-.4 0-.64.32-.64.64 0 .4.32.64.64.64s.64-.32.64-.64c0-.4-.24-.64-.64-.64zm31.04 0c-.4 0-.64.32-.64.64 0 .4.24.64.64.64s.64-.32.64-.64-.24-.64-.64-.64zm-33.6 0c-.32 0-.64.32-.64.64 0 .4.32.64.64.64.4 0 .64-.32.64-.64s-.32-.64-.64-.64zm5.2 0c-.4 0-.64.32-.64.64 0 .4.24.64.64.64.32 0 .64-.24.64-.64 0-.32-.32-.64-.64-.64zm2.56 0c-.4 0-.72.32-.72.64 0 .4.32.64.72.64.32 0 .64-.24.64-.64 0-.32-.32-.64-.64-.64zm2.56 0c-.4 0-.64.32-.64.64 0 .4.32.64.64.64.4 0 .64-.24.64-.64 0-.32-.24-.64-.64-.64zm2.64 0c-.4 0-.64.32-.64.64 0 .4.24.64.64.64s.64-.24.64-.64c0-.32-.32-.64-.64-.64zm2.56 0c-.4 0-.64.32-.64.64 0 .4.32.64.64.64s.64-.24.64-.64c0-.32-.32-.64-.64-.64zm2.56 0c-.32 0-.64.32-.64.64 0 .4.32.64.64.64.4 0 .72-.24.72-.64 0-.32-.32-.64-.72-.64zm2.64 0c-.4 0-.64.32-.64.64 0 .4.32.64.64.64.4 0 .64-.24.64-.64 0-.32-.32-.64-.64-.64zm2.56 0c-.4 0-.64.32-.64.64 0 .4.24.64.64.64s.64-.24.64-.64c0-.32-.32-.64-.64-.64zm2.56 0c-.4 0-.64.32-.64.64 0 .4.32.64.64.64s.64-.24.64-.64c0-.32-.32-.64-.64-.64zm2.64 0c-.32 0-.64.32-.64.64 0 .4.32.64.64.64.4 0 .64-.24.64-.64 0-.32-.32-.64-.64-.64zm2.56 0c-.4 0-.64.32-.64.64 0 .4.24.64.64.64s.64-.24.64-.64c0-.32-.32-.64-.64-.64zm-28.48 2.56c-.4 0-.64.32-.64.64 0 .4.32.64.64.64s.64-.32.64-.64c0-.4-.24-.64-.64-.64zm31.04 0c-.4 0-.64.32-.64.64 0 .4.24.64.64.64s.64-.24.64-.64c0-.32-.24-.64-.64-.64zm-33.6 0c-.32 0-.64.32-.64.64 0 .4.32.64.64.64.4 0 .64-.32.64-.64s-.32-.64-.64-.64zm5.2 0c-.4 0-.64.32-.64.64 0 .4.24.64.64.64.32 0 .64-.24.64-.64 0-.32-.32-.64-.64-.64zm2.56 0c-.4 0-.72.32-.72.64 0 .4.32.64.72.64.32 0 .64-.24.64-.64 0-.32-.32-.64-.64-.64zm2.56 0c-.4 0-.64.32-.64.64 0 .4.32.64.64.64.4 0 .64-.24.64-.64 0-.32-.24-.64-.64-.64zm2.64 0c-.4 0-.64.32-.64.64 0 .4.24.64.64.64s.64-.24.64-.64c0-.32-.32-.64-.64-.64zm2.56 0c-.4 0-.64.32-.64.64 0 .4.32.64.64.64s.64-.24.64-.64c0-.32-.32-.64-.64-.64zm2.56 0c-.32 0-.64.32-.64.64 0 .4.32.64.64.64.4 0 .72-.24.72-.64 0-.32-.32-.64-.72-.64zm2.64 0c-.4 0-.64.32-.64.64 0 .4.32.64.64.64.4 0 .64-.24.64-.64 0-.32-.32-.64-.64-.64zm2.56 0c-.4 0-.64.32-.64.64 0 .4.24.64.64.64s.64-.24.64-.64c0-.32-.32-.64-.64-.64zm2.56 0c-.4 0-.64.32-.64.64 0 .4.32.64.64.64s.64-.24.64-.64c0-.32-.32-.64-.64-.64zm2.64 0c-.32 0-.64.32-.64.64 0 .4.32.64.64.64.4 0 .64-.24.64-.64 0-.32-.32-.64-.64-.64zm2.56 0c-.4 0-.64.32-.64.64 0 .4.24.64.64.64s.64-.24.64-.64c0-.32-.32-.64-.64-.64zm-28.48 2.56c-.4 0-.64.24-.64.64s.32.64.64.64.64-.32.64-.64-.24-.64-.64-.64zm-2.56.08c-.32 0-.64.32-.64.64 0 .4.32.64.64.64.4 0 .64-.24.64-.64s-.32-.64-.64-.64zm5.2 0c-.4 0-.64.32-.64.64 0 .4.24.64.64.64.32 0 .64-.24.64-.64s-.32-.64-.64-.64zm2.56 0c-.4 0-.72.32-.72.64 0 .4.32.64.72.64.32 0 .64-.24.64-.64s-.32-.64-.64-.64zm2.56 0c-.4 0-.64.32-.64.64 0 .4.32.64.64.64.4 0 .64-.24.64-.64s-.24-.64-.64-.64zm2.64 0c-.4 0-.64.32-.64.64 0 .4.24.64.64.64s.64-.24.64-.64-.32-.64-.64-.64zm2.56 0c-.4 0-.64.32-.64.64 0 .4.32.64.64.64s.64-.24.64-.64-.32-.64-.64-.64zm2.56 0c-.32 0-.64.32-.64.64 0 .4.32.64.64.64.4 0 .72-.24.72-.64s-.32-.64-.72-.64zm2.64 0c-.4 0-.64.32-.64.64 0 .4.32.64.64.64.4 0 .64-.24.64-.64s-.32-.64-.64-.64zm2.56 0c-.4 0-.64.32-.64.64 0 .4.24.64.64.64s.64-.24.64-.64-.32-.64-.64-.64zm2.56 0c-.4 0-.64.32-.64.64 0 .4.32.64.64.64s.64-.24.64-.64-.32-.64-.64-.64zm2.64 0c-.32 0-.64.32-.64.64 0 .4.32.64.64.64.4 0 .64-.24.64-.64s-.32-.64-.64-.64zm2.56 0c-.4 0-.64.32-.64.64 0 .4.24.64.64.64s.64-.24.64-.64-.32-.64-.64-.64zm2.56 0c-.4 0-.64.24-.64.64s.24.64.64.64.64-.24.64-.64-.24-.64-.64-.64zm2.56 0c-.4 0-.64.24-.64.64s.32.64.64.64.64-.24.64-.64-.24-.64-.64-.64zm-33.6 2.56c-.4 0-.64.32-.64.64s.32.64.64.64.64-.32.64-.64c0-.4-.24-.64-.64-.64zm-2.56 0c-.32 0-.64.32-.64.64s.32.64.64.64c.4 0 .64-.32.64-.64s-.32-.64-.64-.64zm5.2 0c-.4 0-.64.32-.64.64s.24.64.64.64c.32 0 .64-.32.64-.64s-.32-.64-.64-.64zm2.56 0c-.4 0-.72.32-.72.64s.32.64.72.64c.32 0 .64-.32.64-.64s-.32-.64-.64-.64zm2.56 0c-.4 0-.64.32-.64.64s.32.64.64.64c.4 0 .64-.32.64-.64s-.24-.64-.64-.64zm2.64 0c-.4 0-.64.32-.64.64s.24.64.64.64.64-.32.64-.64-.32-.64-.64-.64zm2.56 0c-.4 0-.64.32-.64.64s.32.64.64.64.64-.32.64-.64-.32-.64-.64-.64zm2.56 0c-.32 0-.64.32-.64.64s.32.64.64.64c.4 0 .72-.32.72-.64s-.32-.64-.72-.64zm2.64 0c-.4 0-.64.32-.64.64s.32.64.64.64c.4 0 .64-.32.64-.64s-.32-.64-.64-.64zm2.56 0c-.4 0-.64.32-.64.64s.24.64.64.64.64-.32.64-.64-.32-.64-.64-.64zm2.56 0c-.4 0-.64.32-.64.64s.32.64.64.64.64-.32.64-.64-.32-.64-.64-.64zm2.64 0c-.32 0-.64.32-.64.64s.32.64.64.64c.4 0 .64-.32.64-.64s-.32-.64-.64-.64zm2.56 0c-.4 0-.64.32-.64.64s.24.64.64.64.64-.32.64-.64-.32-.64-.64-.64zm2.56 0c-.4 0-.64.32-.64.64s.24.64.64.64.64-.32.64-.64c0-.4-.24-.64-.64-.64zm2.56 0c-.4 0-.64.32-.64.64s.32.64.64.64.64-.32.64-.64c0-.4-.24-.64-.64-.64zm-33.6 2.56c-.4 0-.64.32-.64.64 0 .4.32.64.64.64s.64-.32.64-.64-.24-.64-.64-.64zm-2.56 0c-.32 0-.64.32-.64.64 0 .4.32.64.64.64.4 0 .64-.24.64-.64 0-.32-.32-.64-.64-.64zm33.6 0c-.4 0-.64.32-.64.64 0 .4.24.64.64.64s.64-.32.64-.64-.24-.64-.64-.64zm2.56 0c-.4 0-.64.32-.64.64 0 .4.32.64.64.64s.64-.32.64-.64-.24-.64-.64-.64zm-30.96 0c-.4 0-.64.24-.64.64s.24.64.64.64c.32 0 .64-.24.64-.64 0-.32-.32-.64-.64-.64zm2.56 0c-.4 0-.72.24-.72.64s.32.64.72.64c.32 0 .64-.24.64-.64 0-.32-.32-.64-.64-.64zm2.56 0c-.4 0-.64.24-.64.64s.32.64.64.64c.4 0 .64-.24.64-.64 0-.32-.24-.64-.64-.64zm2.64 0c-.4 0-.64.24-.64.64s.24.64.64.64.64-.24.64-.64c0-.32-.32-.64-.64-.64zm2.56 0c-.4 0-.64.24-.64.64s.32.64.64.64.64-.24.64-.64c0-.32-.32-.64-.64-.64zm2.56 0c-.32 0-.64.24-.64.64s.32.64.64.64c.4 0 .72-.24.72-.64 0-.32-.32-.64-.72-.64zm2.64 0c-.4 0-.64.24-.64.64s.32.64.64.64c.4 0 .64-.24.64-.64 0-.32-.32-.64-.64-.64zm2.56 0c-.4 0-.64.24-.64.64s.24.64.64.64.64-.24.64-.64c0-.32-.32-.64-.64-.64zm2.56 0c-.4 0-.64.24-.64.64s.32.64.64.64.64-.24.64-.64c0-.32-.32-.64-.64-.64zm2.64 0c-.32 0-.64.24-.64.64s.32.64.64.64c.4 0 .64-.24.64-.64 0-.32-.32-.64-.64-.64zm2.56 0c-.4 0-.64.24-.64.64s.24.64.64.64.64-.24.64-.64c0-.32-.32-.64-.64-.64zm12.88 2.56c-.4 0-.64.32-.64.64 0 .4.24.64.64.64s.64-.32.64-.64c.08-.4-.24-.64-.64-.64zm-41.36 0c-.4 0-.64.32-.64.64 0 .4.32.64.64.64s.64-.32.64-.64-.24-.64-.64-.64zm-2.56 0c-.32 0-.64.24-.64.64s.32.64.64.64c.4 0 .64-.24.64-.64 0-.32-.32-.64-.64-.64zm5.2 0c-.4 0-.64.24-.64.64s.24.64.64.64c.32 0 .64-.32.64-.64s-.32-.64-.64-.64zm2.56 0c-.4 0-.72.24-.72.64s.32.64.72.64c.32 0 .64-.32.64-.64s-.32-.64-.64-.64zm2.56 0c-.4 0-.64.24-.64.64s.32.64.64.64c.4 0 .64-.32.64-.64s-.24-.64-.64-.64zm2.64 0c-.4 0-.64.24-.64.64s.24.64.64.64.64-.32.64-.64-.32-.64-.64-.64zm2.56 0c-.4 0-.64.24-.64.64s.32.64.64.64.64-.32.64-.64-.32-.64-.64-.64zm2.56 0c-.32 0-.64.24-.64.64s.32.64.64.64c.4 0 .72-.32.72-.64s-.32-.64-.72-.64zm10.4 0c-.32 0-.64.24-.64.64s.32.64.64.64c.4 0 .64-.32.64-.64s-.32-.64-.64-.64zm2.56 0c-.4 0-.64.24-.64.64s.24.64.64.64.64-.32.64-.64-.32-.64-.64-.64zm12.88 2.56c-.4 0-.64.24-.64.64s.24.64.64.64.64-.32.64-.64-.24-.64-.64-.64zm-5.12 0c-.32 0-.64.32-.64.64 0 .4.32.64.64.64.4 0 .72-.24.72-.64-.08-.32-.4-.64-.72-.64zm2.56 0c-.4 0-.64.32-.64.64 0 .4.24.64.64.64s.64-.24.64-.64c0-.32-.32-.64-.64-.64zm-36.16.08c-.4 0-.64.24-.64.64s.24.64.64.64c.32 0 .64-.32.64-.64 0-.4-.32-.64-.64-.64zm2.56 0c-.4 0-.72.24-.72.64s.32.64.72.64c.32 0 .64-.32.64-.64 0-.4-.32-.64-.64-.64zm2.56 0c-.4 0-.64.24-.64.64s.32.64.64.64c.4 0 .64-.32.64-.64 0-.4-.24-.64-.64-.64zm2.64 0c-.4 0-.64.24-.64.64s.24.64.64.64.64-.32.64-.64c0-.4-.32-.64-.64-.64zm2.56 0c-.4 0-.64.24-.64.64s.32.64.64.64.64-.32.64-.64c0-.4-.32-.64-.64-.64zm2.56 0c-.32 0-.64.24-.64.64s.32.64.64.64c.4 0 .72-.32.72-.64 0-.4-.32-.64-.72-.64zm25.84 2.48c-.4 0-.64.32-.64.64s.24.64.64.64.64-.24.64-.64-.24-.64-.64-.64zm-2.56.08c-.4 0-.64.32-.64.64s.24.64.64.64.64-.32.64-.64c0-.4-.32-.64-.64-.64zm2.56 2.56c-.4 0-.64.32-.64.64 0 .4.24.64.64.64s.64-.32.64-.64c.08-.32-.24-.64-.64-.64zm-5.12 0c-.32 0-.64.32-.64.64 0 .4.32.64.64.64.4 0 .72-.32.72-.64-.08-.32-.4-.64-.72-.64zm2.56 0c-.4 0-.64.32-.64.64 0 .4.24.64.64.64s.64-.32.64-.64-.32-.64-.64-.64zm0 2.56c-.4 0-.64.24-.64.64s.24.64.64.64.64-.24.64-.64-.32-.64-.64-.64z"/>
        <text fill="#173E4F" font-family="Avenir-Medium, Avenir" font-size="24" font-weight="400" letter-spacing="3.5" transform="translate(0 -2.27)">
            <tspan x="90.795" y="83.95">LESS</tspan>
        </text>
        <path fill="#173E4F" fill-rule="nonzero" d="M9.395 64.76a.642.642 0 0 0-.64.64v16.288l-6.784-5.824a.65.65 0 0 0-.896.064.65.65 0 0 0 .064.896l7.84 6.72c.128.096.256.16.416.16.16 0 .288-.064.416-.16l7.84-6.72a.65.65 0 0 0 .064-.896.65.65 0 0 0-.896-.064l-6.784 5.824V65.4a.642.642 0 0 0-.64-.64zM33.395 64.76a.642.642 0 0 0-.64.64v16.288l-6.784-5.824a.65.65 0 0 0-.896.064.65.65 0 0 0 .064.896l7.84 6.72c.128.096.256.16.416.16.16 0 .288-.064.416-.16l7.84-6.72a.65.65 0 0 0 .064-.896.65.65 0 0 0-.896-.064l-6.784 5.824V65.4a.642.642 0 0 0-.64-.64zM57.395 64.76a.642.642 0 0 0-.64.64v16.288l-6.784-5.824a.65.65 0 0 0-.896.064.65.65 0 0 0 .064.896l7.84 6.72c.128.096.256.16.416.16.16 0 .288-.064.416-.16l7.84-6.72a.65.65 0 0 0 .064-.896.65.65 0 0 0-.896-.064l-6.784 5.824V65.4a.642.642 0 0 0-.64-.64z"/>
    </g>
</svg>
