<svg xmlns="http://www.w3.org/2000/svg" width="185" height="131" viewBox="0 0 185 131">
    <g fill="none" fill-rule="evenodd">
        <path stroke="#173E4F" d="M.5 1h184v65H.5zM.5 66h184v32H.5zM.5 98h184v32H.5z"/>
        <text fill="#173E4F" font-family="AvenirNext-Heavy, Avenir Next" font-size="48" font-weight="600" transform="translate(0 .5)">
            <tspan x="18.5" y="48">95%</tspan>
        </text>
        <text fill="#173E4F" font-family="AvenirNext-DemiBoldItalic, Avenir Next" font-size="18" font-style="italic" font-weight="500" letter-spacing="2.625" transform="translate(0 .5)">
            <tspan x="19.946" y="119.66">LAND</tspan> <tspan x="79.478" y="119.66" font-family="Avenir-Oblique, Avenir" font-weight="normal" letter-spacing="2.461"> IS USED</tspan>
        </text>
        <g fill="#173E4F">
            <text font-family="AvenirNext-DemiBold, Avenir Next" font-size="24" font-weight="500" letter-spacing="3.5" transform="translate(18.5 65.5)">
                <tspan x="79" y="24">LESS</tspan>
            </text>
            <path fill-rule="nonzero" d="M27.64 72.128a.642.642 0 0 0-.64.64v16.288l-6.784-5.824a.65.65 0 0 0-.896.064.65.65 0 0 0 .064.896l7.84 6.72c.128.096.256.16.416.16.16 0 .288-.064.416-.16l7.84-6.72a.65.65 0 0 0 .064-.896.65.65 0 0 0-.896-.064l-6.784 5.824V72.768a.642.642 0 0 0-.64-.64zM51.64 72.128a.642.642 0 0 0-.64.64v16.288l-6.784-5.824a.65.65 0 0 0-.896.064.65.65 0 0 0 .064.896l7.84 6.72c.128.096.256.16.416.16.16 0 .288-.064.416-.16l7.84-6.72a.65.65 0 0 0 .064-.896.65.65 0 0 0-.896-.064l-6.784 5.824V72.768a.642.642 0 0 0-.64-.64zM75.64 72.128a.642.642 0 0 0-.64.64v16.288l-6.784-5.824a.65.65 0 0 0-.896.064.65.65 0 0 0 .064.896l7.84 6.72c.128.096.256.16.416.16.16 0 .288-.064.416-.16l7.84-6.72a.65.65 0 0 0 .064-.896.65.65 0 0 0-.896-.064l-6.784 5.824V72.768a.642.642 0 0 0-.64-.64z"/>
        </g>
        <path fill="#173E4F" fill-rule="nonzero" d="M162.363 19.803c-.975 0-1.887.528-2.404 1.372-1.396-.324-2.743.681-2.743 1.958 0 .656.333 1.197.738 1.552.405.354.876.567 1.381.567h3.633c.723 0 1.275-.478 1.608-1.003.334-.524.511-1.133.511-1.721 0-.656-.297-1.291-.766-1.808-.47-.516-1.151-.917-1.958-.917zm-12.442.397l-5.147 3.33a.617.617 0 0 0-.274.511v22.404a.63.63 0 0 0 .606.606h26.036a.63.63 0 0 0 .606-.606V26.161c.007-.344-.33-.653-.672-.615a.627.627 0 0 0-.54.615v1.126a84.597 84.597 0 0 0-2.421-.256v-.87c.007-.344-.33-.653-.672-.615a.627.627 0 0 0-.54.615v.766c-.792-.065-1.6-.129-2.421-.18v-.586c.007-.344-.33-.653-.672-.615a.627.627 0 0 0-.54.615v.52c-.602-.032-1.21-.07-1.816-.095v-.425c.008-.344-.33-.653-.671-.615a.627.627 0 0 0-.54.615v.388a153.2 153.2 0 0 0-1.816-.048v-.34c.007-.344-.33-.653-.672-.615a.627.627 0 0 0-.54.615v.312c-.408-.005-.81-.008-1.21-.01v-2.422a.617.617 0 0 0-.275-.51l-5.146-3.33c-.28-.141-.41-.1-.663 0zm18.8-.095v1.212h.605v-1.212h-.606zm-1.193.492l-.435.426.861.861.426-.435-.852-.852zm2.99 0l-.852.852.426.435.861-.86-.435-.427zm-8.155.417c.403 0 .781.204 1.069.52.287.316.444.741.444.994 0 .32-.125.76-.321 1.069-.196.308-.402.444-.587.444h-3.633c-.1 0-.386-.099-.587-.274-.2-.176-.321-.382-.321-.634 0-.37.692-1.097 1.542-.672.31.16.743-.018.851-.35.214-.64.903-1.097 1.543-1.097zm-12.11.416l4.54 2.933v3.567a50.64 50.64 0 0 0-1.513-.133v-3.15a.63.63 0 0 0-.606-.606h-4.9a.627.627 0 0 0-.55.606v2.98c-.494.007-1.001.015-1.513.029v-3.293l4.541-2.933zm18.77.19a.908.908 0 1 0 0 1.816.908.908 0 0 0 0-1.817zm-2.422.605v.605h1.211v-.605h-1.21zm3.633 0v.605h1.211v-.605h-1.21zm-2.28.936l-.86.861.434.426.852-.851-.426-.436zm2.138 0l-.426.436.852.851.435-.426-.86-.86zm-1.372.578v1.21h.606v-1.21h-.606zm-20.284 1.513h3.633v2.47c-1.307-.06-2.5-.104-3.633-.104v-2.366zm7.569 2.422c.4.003.8.005 1.21.01v.558c-.4-.064-.807-.117-1.21-.17v-.398zm2.422.038c.601.013 1.207.027 1.816.048v1.088a43.39 43.39 0 0 0-1.816-.388v-.748zm3.027.085c.608.026 1.213.063 1.817.095v1.779a46.094 46.094 0 0 0-1.817-.52v-1.354zm3.028.17c.822.052 1.63.105 2.422.171v2.8c-.824-.32-1.63-.603-2.422-.87v-2.1zm3.633.275c.841.08 1.65.168 2.422.265v3.974a74.912 74.912 0 0 0-2.422-1.05v-3.189zm-19.632.615c5.617 4.558 8.528 11.293 8.723 16.983h-6.66c-.041-5.591-.686-11.292-4.315-16.964.783-.02 1.58-.02 2.252-.02v.001zm1.883.02c.863.022 1.702.065 2.526.122 4.662 4.132 10.958 9.908 11.561 16.841h-6.036c-.18-5.683-2.863-12.212-8.051-16.964zm4.617.311c1.152.129 2.286.293 3.415.511 2.74 2.238 11.923 10.029 12.139 13.113v3.028h-4.863c-.93-7.215-5.879-12.34-10.691-16.652zm6.064 1.117c2.954.773 6.004 1.904 9.49 3.52v6.017c-2.484-3.686-6.295-6.862-9.49-9.537zm-15.336.019c3.039 5.15 3.586 10.287 3.624 15.516h-3.624V30.324z"/>
    </g>
</svg>
