<svg xmlns="http://www.w3.org/2000/svg" width="30" height="40" viewBox="0 0 30 40">
    <g fill="none" fill-rule="nonzero">
        <path fill="#173E4F" d="M6.075 33.689c-.044 0-.132 0-.175-.044C1.83 31.72.256 27.914.256 20.125c0-6.3 2.712-10.98 4.331-13.781.438-.7.788-1.356 1.006-1.838.088-.13.22-.262.394-.262a.46.46 0 0 1 .394.219c.306.568.787 1.268 1.4 2.056 2.013 2.669 4.988 6.738 4.988 13.563 0 9.1-3.5 11.988-6.52 13.52-.043.087-.13.087-.174.087zM6.03 5.6c-.219.35-.438.744-.7 1.182-1.706 2.887-4.244 7.262-4.244 13.344 0 8.356 1.969 11.113 4.944 12.644 2.756-1.444 5.819-4.2 5.819-12.644 0-6.563-2.888-10.457-4.813-13.038-.35-.525-.7-1.007-1.006-1.488z"/>
        <path fill="#173E4F" d="M6.075 33.689c-.044 0-.132 0-.175-.044C1.83 31.72.256 27.914.256 20.125c0-6.3 2.712-10.98 4.331-13.781.438-.7.788-1.356 1.006-1.838.088-.13.22-.262.394-.262a.46.46 0 0 1 .394.219c.306.568.787 1.268 1.4 2.056 2.013 2.669 4.988 6.738 4.988 13.563 0 9.1-3.5 11.988-6.52 13.52-.043.087-.13.087-.174.087zM6.03 5.6c-.219.35-.438.744-.7 1.182-1.706 2.887-4.244 7.262-4.244 13.344 0 8.356 1.969 11.113 4.944 12.644 2.756-1.444 5.819-4.2 5.819-12.644 0-6.563-2.888-10.457-4.813-13.038-.35-.525-.7-1.007-1.006-1.488z"/>
        <path fill="#173E4F" d="M6.03 35.439c-.262 0-.437-.175-.437-.438v-1.75c0-.262.175-.437.438-.437.262 0 .437.175.437.437v1.75c0 .263-.175.438-.437.438z"/>
        <path fill="#000" d="M4.718 13.563H3.406c-.263 0-.438-.175-.438-.437 0-.263.175-.438.438-.438h1.312c.263 0 .438.175.438.438 0 .262-.175.437-.438.437zM9.531 17.5H8.218c-.262 0-.437-.174-.437-.437 0-.262.175-.437.437-.437h1.313c.263 0 .438.175.438.437 0 .263-.175.438-.438.438zM4.718 22.313H3.406c-.263 0-.438-.175-.438-.437 0-.263.175-.438.438-.438h1.312c.263 0 .438.175.438.438 0 .262-.175.437-.438.437zM9.094 26.689H7.78c-.263 0-.438-.175-.438-.438 0-.262.175-.437.438-.437h1.313c.262 0 .437.175.437.437 0 .263-.175.438-.437.438z"/>
        <path fill="#173E4F" d="M23.532 8.313h-1.313c-.262 0-.437-.175-.437-.438 0-.262.175-.437.437-.437h1.313c.262 0 .437.175.437.437 0 .263-.175.438-.437.438zM25.72 17.5h-1.313c-.263 0-.438-.174-.438-.437 0-.262.175-.437.438-.437h1.312c.263 0 .438.175.438.437 0 .263-.175.438-.438.438zM23.532 26.689h-1.313c-.262 0-.437-.175-.437-.438 0-.262.175-.437.437-.437h1.313c.262 0 .437.175.437.437 0 .263-.175.438-.437.438zM24.844 35.439h-1.312c-.263 0-.438-.175-.438-.438 0-.262.175-.437.438-.437h1.312c.263 0 .438.175.438.437 0 .263-.175.438-.438.438z"/>
        <path fill="#173E4F" d="M28.213 7.482c-1.006-2.013-2.144-3.588-3.106-4.857-.57-.787-1.094-1.487-1.4-2.056a.46.46 0 0 0-.394-.219c-.175 0-.306.088-.394.263-.219.48-.612 1.137-1.006 1.837-.832 1.4-1.794 3.106-2.67 5.425v.175c0 1.357 2.276 2.1 4.551 2.1 2.275 0 4.55-.7 4.55-2.1-.043-.262-.087-.393-.131-.568zM23.75 9.188c-2.187 0-3.675-.744-3.675-1.225v-.088c.875-2.362 1.663-3.544 2.538-5.031.262-.438.481-.831.7-1.181.306.437.656.918 1.05 1.487.919 1.269 2.1 2.844 3.019 4.857.043.48-1.444 1.18-3.632 1.18zM29.788 16.626c-.087-1.05-.306-2.538-.525-3.457v-.087c-.437-1.4-3.106-2.144-5.644-2.144-2.8-.044-5.775.875-5.775 2.538v.043c-.175.875-.263 1.838-.35 2.8 0 .088-.044.132-.044.22 0 1.793 3.194 2.756 6.17 2.756 2.974 0 6.08-.92 6.168-2.67zm-1.356-3.15c0 .7-1.838 1.706-4.857 1.706-2.887 0-4.681-.919-4.856-1.575.044-.131.044-.263.087-.394.394-.656 2.144-1.4 4.77-1.4 3.018-.044 4.856.962 4.856 1.663zm-4.813 5.075c-2.975 0-5.338-1.094-5.338-1.97 0-.655.132-1.268.22-1.837 1.05.832 3.106 1.313 5.074 1.313 2.013 0 4.113-.306 5.12-1.225.087.656.174 1.356.218 2.231-.35.875-2.538 1.488-5.294 1.488zM30.007 22.532c0-1.75-3.238-2.712-6.257-2.712-3.019 0-6.256.962-6.256 2.712v.044c0 1.006.044 1.925.131 2.8l.219.306v-.306h-.219c.088 1.75 3.194 2.756 6.082 2.756 2.756 0 5.687-.743 6.037-2.318a22.56 22.56 0 0 0 .22-3.107c.043-.044.043-.087.043-.175zm-6.257-1.837c3.063 0 5.382.962 5.382 1.837s-2.275 1.838-5.382 1.838c-3.062 0-5.381-.963-5.381-1.838 0-.875 2.319-1.837 5.381-1.837zm-.043 6.737c-2.844 0-4.988-.875-5.207-1.706-.044-.525-.087-1.138-.131-1.706 1.181.831 3.325 1.268 5.338 1.268 2.012 0 4.112-.437 5.294-1.225-.044.7-.132 1.313-.22 1.926-.437.7-2.45 1.443-5.074 1.443zM23.838 28.482c-2.669 0-5.513.875-5.513 2.494v.175c0 .044 0 .131.044.175.744 3.5 2.144 5.25 4.725 6.563v1.488c0 .262.175.437.438.437.262 0 .437-.175.437-.437v-1.444c2.013-1.05 4.069-2.582 5.25-6.388.088-.175.132-.394.132-.569 0-1.619-2.844-2.494-5.513-2.494zm-.263 8.663c-1.662-.831-3.019-2.1-3.894-4.506 1.094.525 2.67.831 4.157.831s3.019-.262 4.069-.787c-1.138 2.406-2.8 3.63-4.332 4.462zm.263-4.594c-2.669 0-4.375-.787-4.594-1.444 0-.043 0-.043-.044-.087v-.044c0-.656 1.75-1.619 4.638-1.619 2.887 0 4.638.92 4.638 1.62 0 .7-1.75 1.574-4.638 1.574z"/>
    </g>
</svg>
