<svg xmlns="http://www.w3.org/2000/svg" width="40" height="30" viewBox="0 0 40 30">
    <g fill="#FFF" fill-rule="nonzero">
        <path d="M25.2.64c-1.6 0-3.12.28-4.56.76-3.96-1.84-9.96-2.76-16.32 3.24-1.48 1.56-3.6 5.32-.76 8.12.44.44.84.76 1.24 1.04-.2.52-.48 1.48-.12 2l.12.12c-.32.56-1.36 1.96-4.32 4.6-.12.08-.16.24-.16.36s.04.28.16.36l7.72 7.72c.08.08.24.16.36.16s.28-.08.36-.16c3.68-4.16 5.12-4.6 5.12-4.6 2.68 3.2 6.68 5.28 11.16 5.28 8 0 14.48-6.52 14.48-14.52S33.2.64 25.2.64zm-21.68 7C4.08 6.28 5 5.28 5 5.28 10.48.12 15.64.44 19.28 1.88c-4.88 2.2-8.32 7-8.56 12.64-.84-.32-1.6-.48-2.36-.6-1.36-.24-2.64-.44-4.08-1.88-1.2-1.2-1.44-2.68-.76-4.4zm4.64 7.28c.84.16 1.68.28 2.52.72 0 .52.04 1 .12 1.48-1.68-1.36-3.64-2.08-5.36-1.96 0-.16.04-.56.2-.92.88.4 1.72.52 2.52.68zm.32 12.96l-6.96-7c2.96-2.72 3.92-4.12 4.24-4.76 1.76-.08 3.8.92 5.4 2.64.44 1.76 1.24 3.36 2.24 4.76-.68.36-2.16 1.36-4.92 4.36zm16.72.76c-7.44 0-13.52-6.04-13.52-13.52 0-7.48 6.08-13.48 13.52-13.48 7.44 0 13.52 6.04 13.52 13.52 0 7.48-6.08 13.48-13.52 13.48z"/>
        <path d="M33.2 10.52c0-.04 0-.04-.04-.04-.8-1.4-1.96-2.56-3.36-3.36h-.04a9 9 0 0 0-4.6-1.24 9 9 0 0 0-4.6 1.24h-.04c-1.4.8-2.56 1.96-3.36 3.36v.04a9 9 0 0 0-1.24 4.6c0 1.68.48 3.24 1.28 4.6v.04l.04.04c.8 1.4 1.96 2.52 3.36 3.36h.04c1.36.76 2.92 1.24 4.6 1.24a9 9 0 0 0 4.6-1.24h.04c1.4-.8 2.52-1.96 3.36-3.36l.04-.04v-.04a9 9 0 0 0 1.24-4.6c0-1.68-.52-3.24-1.32-4.6zm-.64 8.28l-2.92-1.68.12-.24 2.08.56h.12c.24 0 .44-.16.48-.36.08-.28-.08-.56-.36-.6l-2.08-.6c0-.08.04-.16.04-.28h3.4c-.08 1.16-.4 2.24-.88 3.2zm-15.6-3.16h3.4c0 .08.04.16.04.28l-2.08.56c-.28.08-.44.36-.36.6.04.24.28.36.48.36h.12l2.08-.56.12.24-2.92 1.68c-.48-.96-.8-2.04-.88-3.16zm.88-4.2l2.92 1.68-.12.24-2.08-.56c-.28-.08-.56.08-.6.36-.08.28.08.56.36.6l2.08.56c0 .08-.04.16-.04.28h-3.4c.08-1.12.4-2.2.88-3.16zM25.2 19c-2.12 0-3.88-1.72-3.88-3.88s1.72-3.88 3.88-3.88 3.88 1.72 3.88 3.88S27.32 19 25.2 19zm1.72-8.4l.56-2.08c.08-.28-.08-.56-.36-.6-.28-.08-.56.08-.6.36l-.56 2.08c-.08 0-.16-.04-.28-.04v-3.4c1.12.08 2.2.36 3.16.84l-1.64 2.92a.742.742 0 0 0-.28-.08zm-2.2-.32c-.08 0-.16.04-.28.04l-.56-2.08c-.08-.28-.36-.44-.6-.36-.28.08-.44.36-.36.6l.56 2.08-.24.12-1.68-2.92c.96-.48 2.04-.8 3.16-.84v3.36zm-1.24 9.4l-.56 2.08c-.08.28.08.56.36.6h.12c.24 0 .44-.16.48-.36l.56-2.08c.08 0 .16.04.28.04v3.4c-1.12-.08-2.2-.36-3.16-.84l1.68-2.92c.04 0 .16.04.24.08zm2.24.28c.08 0 .16-.04.28-.04l.56 2.08c.04.24.28.36.48.36h.12c.28-.08.44-.36.36-.6l-.56-2.08.24-.12 1.68 2.92c-.96.48-2.04.8-3.16.84v-3.36zm4.32-5.32c0-.08-.04-.16-.04-.28l2.08-.56c.28-.08.44-.36.36-.6-.08-.28-.36-.44-.6-.36l-2.08.56-.12-.24 2.92-1.68c.48.96.8 2.04.84 3.16h-3.36zm2.04-4.08l-2.92 1.68c-.04-.08-.12-.16-.16-.2l1.52-1.52c.2-.2.2-.52 0-.72-.2-.2-.52-.2-.72 0l-1.52 1.52c-.08-.04-.16-.12-.2-.16l1.68-2.92c.92.64 1.72 1.4 2.32 2.32zM20.64 8.24l1.68 2.92c-.08.04-.16.12-.2.16L20.6 9.8c-.2-.2-.52-.2-.72 0-.2.2-.2.52 0 .72l1.52 1.52c-.04.08-.12.16-.16.2l-2.92-1.68c.6-.92 1.4-1.68 2.32-2.32zm-2.32 11.44L21.24 18c.04.08.12.16.16.2l-1.52 1.52c-.2.2-.2.52 0 .72.08.08.24.16.36.16s.24-.04.36-.16l1.52-1.52c.08.04.16.12.2.16L20.64 22c-.92-.6-1.72-1.4-2.32-2.32zM29.76 22l-1.68-2.92c.08-.04.16-.12.2-.16l1.52 1.52c.08.08.24.16.36.16s.24-.04.36-.16c.2-.2.2-.52 0-.72L29 18.2c.04-.08.12-.16.16-.2l2.92 1.68c-.6.92-1.4 1.72-2.32 2.32z"/>
    </g>
</svg>
