<svg xmlns="http://www.w3.org/2000/svg" width="40" height="40" viewBox="0 0 40 40">
    <g fill="none" fill-rule="evenodd">
        <path d="M20.234 26.843c.61.318 1.35.243 1.883-.19a12.308 12.308 0 0 1-3.25-1.022 2.185 2.185 0 0 0 1.367 1.212zM19.194 17.883a4.794 4.794 0 0 0 2.104-4.548c-.276-1.538-1.556-2.701-3.6-3.28-.706-.2-1.394-.462-2.055-.781a3.625 3.625 0 0 1-1.846.566 3.077 3.077 0 0 1-2.172-.997c-1.447-1.428-1.268-2.886-.85-3.723a9.63 9.63 0 0 1-.738-1.23A4.96 4.96 0 0 0 6.64 1.845h-.295a5.36 5.36 0 0 0-3.428 1.477C1.532 4.591-.733 9.366 5.378 16.105c5.834 6.418 10.677 4.092 13.816 1.778zm-14.27-2.388a.616.616 0 0 1 .904-.837c.055.056 5.44 5.767 10.406 3.034a.62.62 0 1 1 .615 1.077 7.2 7.2 0 0 1-3.526.923c-4.455 0-8.197-3.987-8.4-4.197z"/>
        <path d="M25.846 26.708c-.728.094-1.463.125-2.197.092a3.077 3.077 0 0 1-2.523 1.458 3.618 3.618 0 0 1-1.323-.27c-1.895-.739-2.308-2.148-2.252-3.077a9.668 9.668 0 0 1-1.176-.862 5.852 5.852 0 0 0-2.677-.738 3.908 3.908 0 0 0-1.273.209 5.225 5.225 0 0 0-2.843 2.818c-.788 1.699-.967 6.979 7.286 10.764 7.92 3.624 11.452-.431 13.421-3.797a4.794 4.794 0 0 0 .136-4.997c-.887-1.311-2.493-1.846-4.579-1.6zm1.139 9.6a7.268 7.268 0 0 1-4.493 1.403c-4.307 0-8.664-2.837-8.91-2.997a.615.615 0 1 1 .676-1.028c.074.05 7.619 4.923 11.982 1.637a.617.617 0 0 1 .745.985zM11.73 6.326c0 .646.286 1.26.78 1.674a1.717 1.717 0 0 0 1.804.566 12.308 12.308 0 0 1-2.585-2.24zM36.08 13.458c-.22.661-.021 1.39.505 1.847-.003-1.14.152-2.275.461-3.373-.527.346-.88.902-.966 1.526z"/>
        <path d="M36.683 16.8c-1.532-.77-2.148-1.975-1.81-3.588.413-1.994 1.736-2.634 2.665-2.732a9.65 9.65 0 0 1 .659-1.305 4.96 4.96 0 0 0-.135-3.981 5.218 5.218 0 0 0-3.25-2.332 3.895 3.895 0 0 0-.966-.124c-2.283 0-6.418 1.582-8.43 9.114-1.736 6.493.615 9.643 3.433 11.379-5.464-4.468-3.224-11.133-3.2-11.206a.616.616 0 1 1 1.163.406c-.092.258-2.147 6.387 3.391 10.295a.615.615 0 0 1 .148.856.615.615 0 0 1-.425.24c.492.24.985.443 1.459.615a4.794 4.794 0 0 0 4.96-.702c1.138-1.07 1.421-2.775.8-4.8a12.72 12.72 0 0 1-.462-2.135z"/>
        <path fill="#173E4F" fill-rule="nonzero" d="M39.138 4.597a6.32 6.32 0 0 0-4.024-2.942c-2.148-.56-8.296.123-10.905 9.847-1.883 7.04.32 11.643 6.739 14.067.786.3 1.62.455 2.461.456a5.538 5.538 0 0 0 3.797-1.41c.868-.818 2.172-2.689 1.132-6.055a11.12 11.12 0 0 1 .948-8.812.615.615 0 0 0 .074-.148c.64-1.895.548-3.588-.222-5.003zm-2.793 19.15a4.794 4.794 0 0 1-4.96.702 21.877 21.877 0 0 1-1.459-.615.43.43 0 0 1-.437-.092c-.234-.167-.449-.333-.658-.505-2.831-1.735-5.17-4.886-3.434-11.379 2.018-7.55 6.154-9.12 8.45-9.12.327-.004.653.034.971.111a5.218 5.218 0 0 1 3.25 2.333 4.96 4.96 0 0 1 .135 3.981 9.65 9.65 0 0 0-.665 1.299c-.935.104-2.252.738-2.664 2.732-.339 1.612.277 2.818 1.81 3.588.09.73.245 1.45.46 2.153.622 2.043.34 3.748-.8 4.813zm-.265-10.289c.08-.633.433-1.2.966-1.55a12.308 12.308 0 0 0-.461 3.372 1.723 1.723 0 0 1-.505-1.822zM25.668 25.49a11.126 11.126 0 0 1-8.53-2.407.615.615 0 0 0-.135-.092c-1.79-.948-3.47-1.163-4.99-.616a6.32 6.32 0 0 0-3.57 3.471c-.91 2.025-1.268 8.197 7.914 12.4a15.022 15.022 0 0 0 6.154 1.55c3.618 0 6.529-1.938 8.812-5.84 1.23-2.085 1.23-4.56.099-6.307-.653-1.021-2.259-2.621-5.754-2.16zm-3.551 1.162a1.723 1.723 0 0 1-1.883.191 2.185 2.185 0 0 1-1.366-1.23c1.03.495 2.123.845 3.249 1.04zm8.172 6.653c-1.969 3.366-5.501 7.415-13.421 3.797-8.253-3.785-8.074-9.065-7.305-10.776a5.225 5.225 0 0 1 2.85-2.818c.41-.14.84-.21 1.273-.21a5.852 5.852 0 0 1 2.677.739c.37.316.763.604 1.175.861-.055.936.357 2.345 2.253 3.077.42.173.869.265 1.323.271a3.077 3.077 0 0 0 2.523-1.458c.737.037 1.476.01 2.21-.08 2.085-.246 3.691.289 4.578 1.6a4.794 4.794 0 0 1-.136 4.997zM19.926 18.874a6.025 6.025 0 0 0 2.585-5.754c-.216-1.17-1.077-3.28-4.474-4.24a11.126 11.126 0 0 1-6.886-5.582.615.615 0 0 0-.086-.141C9.797 1.582 8.338.695 6.757.597a6.302 6.302 0 0 0-4.652 1.785C.468 3.883-2.295 9.415 4.48 16.898c2.782 3.077 5.625 4.61 8.572 4.61 2.203 0 4.493-.88 6.874-2.634zM14.314 8.548A1.717 1.717 0 0 1 12.51 8a2.185 2.185 0 0 1-.782-1.65 12.308 12.308 0 0 0 2.585 2.198zm-8.948 7.52C-.732 9.298 1.526 4.554 2.905 3.286A5.36 5.36 0 0 1 6.332 1.81h.296a4.96 4.96 0 0 1 3.421 2.05c.215.428.462.839.739 1.23-.419.837-.616 2.296.849 3.723.555.627 1.342 1 2.178 1.034a3.625 3.625 0 0 0 1.847-.566c.66.32 1.349.58 2.055.782 2.043.578 3.317 1.741 3.6 3.28a4.794 4.794 0 0 1-2.105 4.547c-3.157 2.308-8 4.634-13.846-1.821z"/>
        <path fill="#173E4F" fill-rule="nonzero" d="M26.246 35.354c-4.363 3.304-11.908-1.588-11.981-1.637a.615.615 0 1 0-.677 1.028c.246.166 4.609 2.997 8.91 2.997a7.268 7.268 0 0 0 4.487-1.434.615.615 0 0 0-.745-.979l.006.025zM16.837 18.77a.62.62 0 0 0-.615-1.078C11.255 20.425 5.87 14.72 5.815 14.658a.615.615 0 0 0-.892.837c.197.21 3.939 4.185 8.388 4.185a7.2 7.2 0 0 0 3.526-.91zM30.203 22.726c-5.538-3.901-3.477-10.037-3.39-10.295a.616.616 0 1 0-1.164-.406c0 .067-2.289 6.769 3.182 11.206.209.172.424.338.658.504a.43.43 0 0 0 .437.093.615.615 0 0 0 .425-.24.615.615 0 0 0-.148-.862z"/>
    </g>
</svg>
