<svg xmlns="http://www.w3.org/2000/svg" width="38" height="38" viewBox="0 0 38 38">
    <path fill="#173E4F" fill-rule="nonzero" d="M10.334 22.334a5.338 5.338 0 0 0-5.332 5.332 5.338 5.338 0 0 0 5.332 5.332 5.338 5.338 0 0 0 5.332-5.332 5.338 5.338 0 0 0-5.332-5.332zm0 8.664a3.336 3.336 0 0 1-3.332-3.332 3.336 3.336 0 0 1 3.332-3.332 3.336 3.336 0 0 1 3.332 3.332 3.336 3.336 0 0 1-3.332 3.332zM19 13.668A5.338 5.338 0 0 0 13.668 19 5.338 5.338 0 0 0 19 24.332 5.338 5.338 0 0 0 24.332 19 5.338 5.338 0 0 0 19 13.668zm0 8.664A3.336 3.336 0 0 1 15.668 19 3.336 3.336 0 0 1 19 15.668 3.336 3.336 0 0 1 22.332 19 3.336 3.336 0 0 1 19 22.332zm8.666-17.33a5.338 5.338 0 0 0-5.332 5.332 5.338 5.338 0 0 0 5.332 5.332 5.338 5.338 0 0 0 5.332-5.332 5.338 5.338 0 0 0-5.332-5.332zm0 8.664a3.336 3.336 0 0 1-3.332-3.332 3.336 3.336 0 0 1 3.332-3.332 3.336 3.336 0 0 1 3.332 3.332 3.336 3.336 0 0 1-3.332 3.332zm9.375-11.293A.999.999 0 1 0 35.627.959l-1.875 1.875A9.616 9.616 0 0 0 27.666.668c-5.008 0-9.139 3.829-9.619 8.713-4.57.449-8.217 4.096-8.666 8.666-4.884.48-8.713 4.611-8.713 9.619l-.002 9.668 9.668-.002c5.008 0 9.139-3.829 9.619-8.713 4.57-.449 8.217-4.096 8.666-8.666 4.884-.48 8.713-4.611 8.713-9.619a9.61 9.61 0 0 0-2.166-6.086l1.875-1.875zM27.666 18h-1v1c0 4.228-3.438 7.666-7.666 7.666h-1v1c0 4.228-3.439 7.666-7.666 7.666l-7.668.002.002-7.668c0-4.228 3.439-7.666 7.666-7.666h1v-1c0-4.227 3.439-7.666 7.666-7.666h1v-1c0-4.227 3.438-7.666 7.666-7.666s7.666 3.439 7.666 7.666S31.894 18 27.666 18z"/>
</svg>
