<svg xmlns="http://www.w3.org/2000/svg" xmlns:xlink="http://www.w3.org/1999/xlink" width="280" height="126" viewBox="0 0 280 126">
    <defs>
        <path id="a" d="M.418 8.262h6.985V.515H.418z"/>
        <path id="c" d="M0 125.596h279.427V0H0z"/>
    </defs>
    <g fill="none" fill-rule="evenodd">
        <path fill="#FFF" d="M44.804 90.416c0-8.65 6.612-15.594 15.719-15.594 6.07 0 11.019 3.16 13.639 7.818l-3.95 2.37c-1.954-3.66-5.323-5.863-9.69-5.863-6.57 0-11.185 5.115-11.185 11.269 0 6.196 4.7 11.228 11.228 11.228 5.738 0 9.355-3.494 10.312-8.4H59.982V88.96h15.635v1.622c0 8.234-5.613 15.428-15.052 15.428-9.149 0-15.76-7.112-15.76-15.594zM85.223 75.238h9.44c6.445 0 10.728 4.366 10.728 9.897 0 4.033-2.246 7.86-6.57 9.19l7.235 11.269h-5.198L91.71 91.123h2.454c4.532 0 6.694-3.202 6.694-5.988 0-3.41-2.203-5.697-6.653-5.697h-4.45v26.156h-4.532V75.238zM116.162 75.238h18.213v4.283h-13.68v8.69h13.68v4.284h-13.68v8.774h13.68v4.325h-18.213zM146.102 75.238h18.213v4.283h-13.68v8.69h13.68v4.284h-13.68v8.774h13.68v4.325h-18.213zM175.21 75.238h5.114l15.386 22.954V75.238h4.491v30.356h-4.781l-15.677-23.328v23.328h-4.533zM212.344 75.238h9.439c6.445 0 10.729 4.366 10.729 9.897 0 4.033-2.246 7.86-6.57 9.19l7.235 11.269h-5.198l-9.148-14.471h2.453c4.532 0 6.695-3.202 6.695-5.988 0-3.41-2.204-5.697-6.653-5.697h-4.45v26.156h-4.532V75.238zM55.357 122.81h2.858l-1.435-3.776-1.423 3.776zm.99-4.86h.867l2.858 7.532h-.836l-.733-1.908h-3.435l-.722 1.908H53.5l2.847-7.531zM72.934 122.584h-2.166v2.898h-1.806v-7.532h1.806v2.86h2.166v-2.86h1.795v7.532h-1.795zM78.138 117.95h4.467v1.672h-2.672v1.238h2.672v1.671h-2.672v1.28h2.672v1.67h-4.467zM88.48 122.738h1.444l-.723-2.197-.722 2.197zm-.145-4.787h1.733l2.579 7.531H90.82l-.361-1.104h-2.528l-.361 1.104h-1.816l2.58-7.531zM95.84 117.95h1.806v5.81h2.454v1.722h-4.26zM103.632 119.632h-1.878v-1.681h5.489v1.681h-1.858v5.85h-1.753zM114.541 122.584h-2.166v2.898h-1.806v-7.532h1.806v2.86h2.166v-2.86h1.795v7.532h-1.795zM121.85 121.954l-2.352-4.003h1.95l1.31 2.27 1.3-2.27h1.94l-2.342 4.023v3.508h-1.806z"/>
        <g transform="translate(134.262 117.334)">
            <mask id="b" fill="#fff">
                <use xlink:href="#a"/>
            </mask>
            <path fill="#FFF" d="M5.082 6.932L2.792 4.64c-.186-.186-.362-.362-.517-.526-.67.382-1.052.929-1.052 1.692 0 .815.66 1.743 2.125 1.743a2.78 2.78 0 0 0 1.734-.618zm.495.495c-.62.505-1.372.836-2.229.836-2.104 0-2.93-1.321-2.93-2.445 0-1.012.568-1.806 1.393-2.26-.289-.393-.444-.795-.444-1.29 0-.949.733-1.753 1.94-1.753.918 0 1.517.464 1.846.98l-.66.432c-.226-.36-.587-.712-1.186-.712-.68 0-1.114.485-1.114 1.053 0 .63.351 1.001 1.248 1.909L5.64 6.384a4.03 4.03 0 0 0 .867-1.96H5.288v-.753H7.29v.34c0 .929-.423 2.023-1.156 2.869l1.269 1.269H6.31l-.733-.722z" mask="url(#b)"/>
        </g>
        <path fill="#FFF" d="M154.559 122.584h-2.166v2.898h-1.806v-7.532h1.806v2.86h2.166v-2.86h1.795v7.532h-1.795zM162.27 122.738h1.444l-.722-2.197-.722 2.197zm-.145-4.787h1.733l2.58 7.531h-1.826l-.361-1.104h-2.528l-.361 1.104h-1.816l2.58-7.531zM171.436 119.591v2.24h.691c.65 0 1.135-.445 1.135-1.115 0-.67-.485-1.125-1.135-1.125h-.691zm-1.805-1.64h2.568c1.764 0 2.89 1.249 2.89 2.754 0 1.517-1.115 2.797-2.9 2.797h-.753v1.98h-1.805v-7.531zM180.22 119.591v2.24h.691c.65 0 1.135-.445 1.135-1.115 0-.67-.485-1.125-1.135-1.125h-.691zm-1.805-1.64h2.569c1.764 0 2.889 1.249 2.889 2.754 0 1.517-1.114 2.797-2.9 2.797h-.753v1.98h-1.805v-7.531zM188.519 121.954l-2.352-4.003h1.95l1.31 2.27 1.3-2.27h1.94l-2.342 4.023v3.508h-1.806zM201.628 117.95h.805v6.758h3.363v.774h-4.168z"/>
        <mask id="d" fill="#fff">
            <use xlink:href="#c"/>
        </mask>
        <path fill="#FFF" d="M210.113 125.482h.804v-7.532h-.804zM215.387 117.95h4.26v.764h-3.455v2.61h3.456v.764h-3.456v3.394h-.805zM223.903 117.95h4.57v.764h-3.766v2.61h3.766v.764h-3.766v2.62h3.766v.774h-4.57z" mask="url(#d)"/>
        <g fill="#FFF" mask="url(#d)">
            <path d="M145.177 4.342c-3.129 2.808-11.55 11.27-11.536 20.957.012 9.714 8.451 18.132 11.59 20.927 3.13-2.809 11.55-11.268 11.536-20.957-.013-9.714-8.45-18.132-11.59-20.927m.059 46.225c-.406 0-.812-.132-1.151-.395-.58-.45-14.181-11.18-14.198-24.868C129.867 11.62 143.439.85 144.016.399a1.876 1.876 0 0 1 2.309-.003c.579.45 14.178 11.18 14.196 24.868.02 13.687-13.55 24.453-14.129 24.905-.34.265-.748.398-1.156.398"/>
            <path d="M145.244 57.532a1.877 1.877 0 0 1-1.877-1.875l-.072-53.14a1.878 1.878 0 0 1 1.875-1.88h.002c1.036 0 1.876.839 1.878 1.875l.07 53.14a1.877 1.877 0 0 1-1.874 1.88h-.002z"/>
            <path d="M145.212 33.47h-.032a1.878 1.878 0 0 1-1.332-.588l-11.923-12.598a1.877 1.877 0 1 1 2.726-2.58l10.606 11.206 11.236-11.087a1.877 1.877 0 0 1 2.636 2.671L146.53 32.928a1.878 1.878 0 0 1-1.318.542"/>
        </g>
        <path fill="#FFF" d="M277.78 93.803h-26.35a1.647 1.647 0 0 1 0-3.294h26.35a1.647 1.647 0 0 1 0 3.294M27.997 93.803H1.647a1.647 1.647 0 0 1 0-3.294h26.35a1.647 1.647 0 0 1 0 3.294M94.693 51.21h4.28v1.316h-2.905v1.621h2.906v1.315h-2.906v1.65h2.906v1.316h-4.28zM100.494 57.231l1.255-.988c.356.613.92.969 1.563.969.701 0 1.077-.455 1.077-.95 0-.593-.721-.78-1.492-1.018-.97-.296-2.047-.672-2.047-2.056 0-1.157 1.008-2.076 2.403-2.076 1.176 0 1.848.445 2.431 1.048l-1.136.86c-.297-.445-.722-.682-1.285-.682-.643 0-.99.346-.99.8 0 .554.692.742 1.464 1 .979.315 2.086.75 2.086 2.134 0 1.147-.91 2.255-2.502 2.255-1.304 0-2.174-.554-2.827-1.296M109.143 52.525h-1.919V51.21h5.21v1.315h-1.917v5.903h-1.374zM114.212 58.428h1.354v-1.355h-1.354zM172.72 57.133c0-1.236 1.107-1.978 2.086-2.58.772-.485 1.483-.88 1.483-1.424 0-.455-.385-.83-1.107-.83-.702 0-1.156.415-1.433 1.018l-1.186-.594c.473-.988 1.353-1.611 2.609-1.611 1.582 0 2.511.89 2.511 2.027 0 1.147-1.028 1.78-1.977 2.352-.82.505-1.602.95-1.612 1.622h3.55v1.315h-4.924v-1.295zM183.662 56.114v-2.54c0-.663-.396-1.107-1.078-1.107-.702 0-1.097.484-1.097 1.107v2.53c0 .603.375 1.058 1.077 1.058s1.098-.464 1.098-1.048m-3.55.06v-2.65c0-1.365 1.009-2.412 2.462-2.412 1.493 0 2.462 1.078 2.462 2.402v2.66c0 1.413-.92 2.352-2.462 2.352-1.591 0-2.462-.969-2.462-2.352M187.505 57.113h1.8v-3.866c-.228.336-.723.594-1.167.594h-.11v-1.444h.05c.95 0 1.276-.672 1.276-1.186h1.324v5.902h1.75v1.315h-4.923v-1.315zM194.7 57.123l1.334-.772c.198.544.673.91 1.335.91.633 0 1.216-.524 1.216-1.266 0-.721-.475-1.304-1.256-1.304-.622 0-.998.296-1.275.712l-1.226-.633.515-3.56h4.32v1.286h-3.243l-.188 1.275c.296-.178.722-.336 1.305-.336 1.315 0 2.432.84 2.432 2.57 0 1.434-1.097 2.521-2.62 2.521-1.364 0-2.234-.603-2.65-1.403" mask="url(#d)"/>
    </g>
</svg>
