<svg xmlns="http://www.w3.org/2000/svg" width="40" height="37" viewBox="0 0 40 37">
    <g fill="none" fill-rule="evenodd" stroke="#173E4F" stroke-width="1.29">
        <path d="M29.343 12.126c.315-.463.736-.757 1.326-.814.516-.05 1-.198 1.397-.446a2.487 2.487 0 0 0 1.167-1.877c.041-.393-.015-.778-.141-1.192-.178-.58-.03-1.141.292-1.614.64-.942 2.12-1.062 3.348-.29 2.027 1.369 2.232 4.593.46 7.2-1.773 2.607-4.852 3.61-6.879 2.241-1.173-.852-1.61-2.266-.97-3.208zM22.16 12.181c-.408-.38-.636-.84-.608-1.435.025-.518-.05-1.02-.235-1.45a2.48 2.48 0 0 0-1.669-1.435c-.378-.1-.762-.102-1.185-.038-.593.09-1.121-.14-1.537-.53-.83-.774-.734-2.257.196-3.359 1.63-1.804 4.813-1.528 7.108.616 2.296 2.144 2.835 5.344 1.205 7.148-1.001 1.036-2.446 1.258-3.276.483z"/>
        <path stroke-linecap="round" stroke-linejoin="round" d="M10.194 6.941c-1.739.56-2.447-1.403-2.447-1.403-.563-1.832-2.813-3.867-4.744-2.793-1.947 1.083-1.7 2.768-1.05 4.658 0 0 .786 2.043-.953 2.603 0 0 1.533-.256 2.588-1.327a.626.626 0 0 1 1.048.253c.233.75.733 1.58 1.786 2.1.52-1.027.407-1.98.127-2.716-.17-.448.201-.888.682-.81 1.508.247 2.963-.565 2.963-.565z"/>
        <g stroke-linecap="round" stroke-linejoin="round">
            <path d="M6.548 8.316c.28.736.393 1.689-.127 2.716-1.053-.521-1.553-1.35-1.785-2.1a.625.625 0 0 0-1.048-.253 4.97 4.97 0 0 1-.398.36c1.3 8.84 7.17 29.174 33.005 26.461-.304.01-1.279-.083-3.048-1.332-1.74-1.23-3.12-2.96-4.107-4.933-.978-1.953-2.872-4.879-6.141-7.012a12.565 12.565 0 0 0-2.048-1.074c-2.12-.88-4.186-1.906-6.07-3.281-2.98-2.175-6.72-5.685-7.85-10.34-.319.1-.515.44-.383.788zM27.045 31.159c.35.622.732 1.215 1.142 1.774"/>
            <path d="M13.195 19.993c1.826 1.333 3.93 2.474 6.621 3.592a9.815 9.815 0 0 1 1.61.842c1.84 1.2 3.174 2.706 4.115 4.095"/>
        </g>
        <path stroke-linecap="round" stroke-linejoin="round" d="M7.23 7.507a.652.652 0 0 0-.298.023c1.129 4.655 4.869 8.164 7.85 10.34 1.883 1.374 3.95 2.4 6.07 3.28.708.295 1.395.648 2.047 1.074 2.366 1.544 4.003 3.5 5.102 5.205 3.262-.034 6.915-.618 10.999-2.1-.222.07-1.093.18-3.008-.571-1.8-.707-3.383-1.94-4.669-3.472-1.274-1.518-3.561-3.697-6.906-4.87a11.281 11.281 0 0 0-2.04-.5c-2.064-.315-4.11-.77-6.069-1.575-2.92-1.201-6.688-3.306-8.759-6.8-.106-.01-.212-.017-.319-.034z"/>
        <path d="M18.522 18.786c-.185.359-.296.74-.35 1.13.879.446 1.772.858 2.68 1.235.708.294 1.395.647 2.047 1.073a17.022 17.022 0 0 1 3.89 3.529c.843-.344 1.53-.92 1.939-1.71.618-1.302.318-2.75-.7-3.274-.502-.258-1.013-.318-1.56-.088-.477.2-.973.299-1.442.268a2.524 2.524 0 0 1-1.933-1.096c-.227-.326-.364-.69-.453-1.113-.125-.593-.527-1.017-1.038-1.28-1.019-.526-2.375.068-3.08 1.326z"/>
        <path stroke-linecap="round" stroke-linejoin="round" d="M1.613 1.425l1.839 2.452"/>
    </g>
</svg>
