<svg xmlns="http://www.w3.org/2000/svg" width="40" height="40" viewBox="0 0 40 40">
    <g fill="#173E4F" fill-rule="nonzero">
        <path d="M4.99 40h-.003a.563.563 0 0 1-.561-.565c.015-4.808 4.019-8.366 7.89-11.806 3.857-3.428 7.5-6.665 6.57-10.67a.564.564 0 0 1 1.097-.255c.375 1.612.133 3.099-.508 4.5a.639.639 0 0 1 .001.066c-.192 4.461.855 7.128 1.548 8.893.505 1.287.87 2.217.46 3.103-.377.814-1.335 1.407-3.417 2.116a.563.563 0 1 1-.363-1.066c1.685-.574 2.535-1.044 2.758-1.524.208-.449-.068-1.152-.486-2.217-.625-1.59-1.522-3.876-1.637-7.46-1.371 1.888-3.339 3.636-5.274 5.356-3.687 3.276-7.499 6.663-7.513 10.967 0 .31-.253.562-.563.562z"/>
        <path d="M38.495 38.138a.562.562 0 0 1-.415-.182c-5.003-5.446-7.785-5.811-10.02-6.105-1.946-.256-3.626-.477-5.588-4.023-1.595-2.88-2.77-6.444-3.592-10.895a.563.563 0 1 1 1.108-.204c.8 4.329 1.935 7.781 3.47 10.554 1.687 3.049 2.905 3.209 4.749 3.45 2.288.302 5.422.714 10.703 6.46a.563.563 0 0 1-.415.945zM.704 37.432a.565.565 0 0 1-.506-.81c1.537-3.173 4.013-4.497 7.36-3.93a.563.563 0 1 1-.187 1.111c-2.833-.475-4.848.604-6.16 3.31a.564.564 0 0 1-.507.319zM13.717 37.166a.562.562 0 0 1-.42-.189c-3.123-3.497-2.218-7.947-2.178-8.134a.564.564 0 0 1 1.102.235c-.015.07-.807 4.099 1.916 7.15a.563.563 0 0 1-.42.938zM13.089 26.043c-1.741 0-3.444-.66-4.91-1.366a.563.563 0 0 1 .49-1.015c3.526 1.7 5.884 1.671 7.887-.1a.563.563 0 1 1 .746.843c-1.358 1.202-2.798 1.638-4.213 1.638zM20.24 39.094a.563.563 0 0 1-.4-.96c1.549-1.569 1.695-2.955.459-4.361a.563.563 0 1 1 .846-.744c1.143 1.3 1.983 3.378-.505 5.897a.56.56 0 0 1-.4.168z"/>
        <path d="M25.458 36.8a.563.563 0 0 1-.455-.895c1.101-1.513.996-3.237-.322-5.27a.563.563 0 1 1 .946-.613c1.579 2.437 1.675 4.64.286 6.546a.562.562 0 0 1-.455.232zM34.548 30.64c-1.64 0-3.342-.582-4.915-1.12-2.306-.79-4.297-1.47-5.515-.315a.563.563 0 0 1-.775-.817c1.713-1.625 4.225-.766 6.654.065 2.413.826 4.909 1.68 6.856.429a.563.563 0 1 1 .609.948c-.917.589-1.903.81-2.914.81zM34.99 39.892a.56.56 0 0 1-.4-.169c-2.002-2.035-2.49-4.222-1.496-6.687a.563.563 0 1 1 1.044.422c-.82 2.032-.421 3.771 1.254 5.476a.563.563 0 0 1-.401.958zM24.419 26.285c-1.202 0-2.305-.554-3.294-1.656a.563.563 0 0 1 .84-.752c1.157 1.291 2.394 1.596 3.892.954a.564.564 0 0 1 .443 1.037c-.65.278-1.278.417-1.881.417zM5.33 28.186c-1.075 0-2.22-.259-3.444-.774a.563.563 0 1 1 .438-1.038c3.09 1.3 5.501.74 7.586-1.765a.564.564 0 0 1 .866.72C9.19 27.238 7.39 28.187 5.33 28.187z"/>
        <path d="M7.218 27.861a.563.563 0 0 1-.502-.306c-1.201-2.34-1.75-3.408-5.81-4.27a.563.563 0 1 1 .233-1.102c4.585.973 5.336 2.435 6.58 4.857a.563.563 0 0 1-.501.821zM29.424 29.417a.562.562 0 0 1-.527-.761c.8-2.145 2.391-3.027 4.995-2.78a.563.563 0 1 1-.107 1.122c-2.606-.25-3.402.897-3.833 2.052a.563.563 0 0 1-.528.367zM27.578 23.715c-2.61 0-5.194-.676-7.635-2.605a.563.563 0 0 1 .699-.884c3.954 3.125 8.255 2.751 13.495 1.226a.564.564 0 0 1 .315 1.082c-2.259.657-4.577 1.181-6.874 1.181zM38.47 17.394H.73a.563.563 0 0 1 0-1.126h37.74a.563.563 0 1 1 0 1.126z"/>
        <path d="M19.6 17.394a.563.563 0 0 1-.563-.563V6.04a.563.563 0 1 1 1.127 0V16.83a.563.563 0 0 1-.564.563z"/>
        <path d="M19.6 9.346a3.347 3.347 0 0 1-3.343-3.344C16.257 4.555 17.48 0 19.6 0s3.343 4.555 3.343 6.002c0 1.844-1.5 3.344-3.343 3.344zm0-8.22c-.975 0-2.217 3.306-2.217 4.876 0 1.223.995 2.217 2.217 2.217a2.218 2.218 0 0 0 2.216-2.217c0-1.57-1.241-4.875-2.216-4.875zM15.01 13.688c-.524 0-1.051-.159-1.505-.49-.536-.39-1.245-1.228-1.723-2.036-.683-1.154-.815-2.076-.384-2.668.974-1.335 4.223-.092 5.123.564.553.402.916.996 1.022 1.673a2.561 2.561 0 0 1-2.534 2.958zm-2.173-4.676c-.263 0-.455.045-.528.145-.087.118-.043.612.442 1.431.451.762 1.067 1.445 1.417 1.7a1.437 1.437 0 0 0 2.263-1.383 1.426 1.426 0 0 0-.573-.937c-.726-.528-2.21-.956-3.021-.956z"/>
        <path d="M19.6 14.952a.563.563 0 0 1-.327-.105l-5.619-4.012a.563.563 0 1 1 .655-.917l5.619 4.012a.564.564 0 0 1-.328 1.022zM24.19 13.688a2.56 2.56 0 0 1-1.511-4.63c.9-.656 4.15-1.899 5.123-.564.431.592.299 1.514-.384 2.668-.479.808-1.187 1.646-1.722 2.036-.455.331-.982.49-1.506.49zm2.173-4.676c-.81 0-2.295.428-3.021.956-.31.226-.513.559-.572.937a1.436 1.436 0 0 0 2.262 1.382c.35-.254.966-.937 1.416-1.699.485-.82.53-1.312.443-1.43-.073-.101-.265-.146-.528-.146z"/>
        <path d="M19.544 14.992a.563.563 0 0 1-.328-1.022l5.675-4.052a.564.564 0 0 1 .655.917l-5.675 4.052a.562.562 0 0 1-.327.105zM14.719 22.468c-1.706 0-3.245-.557-4.334-1.277a.564.564 0 0 1 .621-.94 6.782 6.782 0 0 0 7.467-.063.564.564 0 0 1 .62.942c-1.467.964-2.977 1.338-4.374 1.338zM24.453 23.34a.564.564 0 0 1-.526-.766c.905-2.35 2.888-3.608 5.893-3.74.331 0 .574.228.588.538a.564.564 0 0 1-.538.588c-2.552.112-4.152 1.1-4.891 3.019a.563.563 0 0 1-.526.361z"/>
    </g>
</svg>
