<svg xmlns="http://www.w3.org/2000/svg" width="49" height="50" viewBox="0 0 49 50">
    <path fill="#173E4F" fill-rule="nonzero" d="M45.436 28.308c-1.898 0-3.487-1.59-3.487-3.539 0-1.897 1.59-3.538 3.487-3.538 1.949 0 3.487 1.59 3.487 3.538.051 2-1.538 3.539-3.487 3.539zM28.05 3.64c0-1.949-1.538-3.538-3.487-3.538-1.897 0-3.487 1.64-3.487 3.538 0 1.949 1.59 3.538 3.487 3.538 1.949 0 3.539-1.538 3.487-3.538zm0 41.949c0-1.949-1.538-3.539-3.487-3.539-1.897 0-3.487 1.641-3.487 3.539 0 1.948 1.59 3.538 3.487 3.538 1.949 0 3.539-1.538 3.487-3.538zM7.282 24.77c0-1.95-1.538-3.54-3.487-3.54-1.898 0-3.487 1.642-3.487 3.54 0 1.948 1.59 3.538 3.487 3.538 1.949 0 3.538-1.539 3.487-3.539zm17.692-8.667V9.179a.404.404 0 0 0-.41-.41.404.404 0 0 0-.41.41v6.924c0 .205.154.41.41.41.205 0 .41-.205.41-.41zM9.18 25.128h6.924c.205 0 .41-.154.41-.41a.404.404 0 0 0-.41-.41H9.179a.404.404 0 0 0-.41.41c0 .256.205.41.41.41zm24-.102h6.924c.205 0 .41-.154.41-.41a.404.404 0 0 0-.41-.41h-6.924a.404.404 0 0 0-.41.41c-.051.256.205.41.41.41zm-8.205 15.128V33.23a.404.404 0 0 0-.41-.41.404.404 0 0 0-.41.41v6.923c0 .205.154.41.41.41.205-.051.41-.205.41-.41zM13.538 9.692c0-1.948-1.538-3.538-3.487-3.538-1.897 0-3.487 1.64-3.487 3.538 0 1.949 1.59 3.539 3.487 3.539 1.949 0 3.539-1.539 3.487-3.539zm5.539 8.462l-4.872-4.872a.402.402 0 0 0-.564 0 .402.402 0 0 0 0 .564l4.872 4.872c.154.154.41.154.564 0a.556.556 0 0 0 0-.564zm20.051-4.923c1.898 0 3.487-1.59 3.487-3.539 0-1.897-1.59-3.538-3.487-3.538-1.949 0-3.487 1.59-3.487 3.538-.051 2 1.538 3.539 3.487 3.539zm-9.025 5.487c.153.154.41.154.564 0l4.871-4.872a.402.402 0 0 0 0-.564.402.402 0 0 0-.564 0l-4.871 4.872a.402.402 0 0 0 0 .564zM10.05 35.538c-1.897 0-3.487 1.59-3.487 3.539 0 1.897 1.59 3.538 3.487 3.538 1.949 0 3.487-1.59 3.487-3.538.052-2-1.538-3.539-3.487-3.539zm8.77-5.282a.402.402 0 0 0-.565 0l-4.871 4.872a.402.402 0 0 0 0 .564c.153.154.41.154.564 0l4.872-4.871a.402.402 0 0 0 0-.565zm16.82 8.82c0 1.95 1.538 3.54 3.487 3.54 1.898 0 3.487-1.642 3.487-3.54 0-1.948-1.59-3.538-3.487-3.538-1.949 0-3.538 1.539-3.487 3.539zm-5.333-8.255l4.871 4.871c.154.154.41.154.565 0a.402.402 0 0 0 0-.564l-4.872-4.872a.402.402 0 0 0-.564 0 .402.402 0 0 0 0 .565z"/>
</svg>
