<svg xmlns="http://www.w3.org/2000/svg" width="50" height="46" viewBox="0 0 50 46">
    <g fill="#173E4F" fill-rule="nonzero">
        <path d="M47.72 42.442H18.14v-5.448h12.558a1.395 1.395 0 0 0 1.255-2.009l-3.806-7.775h2.149a1.395 1.395 0 0 0 1.166-2.16l-5.788-8.84h1.01a1.395 1.395 0 0 0 1.117-2.233L17.86.587a1.395 1.395 0 0 0-2.233 0L5.66 13.982a1.395 1.395 0 0 0 1.116 2.233h1.038l-5.794 8.84a1.395 1.395 0 0 0 1.167 2.16h2.149l-3.801 7.77a1.395 1.395 0 0 0 1.256 2.01h12.558v5.447H1.395a1.395 1.395 0 0 0 0 2.79H47.721a1.395 1.395 0 0 0 0-2.79zM32.651 7a6.977 6.977 0 1 0 13.954 0A6.977 6.977 0 0 0 32.65 7zm11.163 0a4.186 4.186 0 1 1-8.372 0 4.186 4.186 0 0 1 8.372 0z"/>
    </g>
</svg>
