<svg xmlns="http://www.w3.org/2000/svg" width="178" height="114" viewBox="0 0 178 114">
    <g fill="#173E4F" fill-rule="evenodd">
        <text font-family="Avenir-Heavy, Avenir" font-size="48" font-weight="600" transform="translate(0 -5.5)">
            <tspan x=".466" y="48">74%</tspan>
        </text>
        <text font-family="Avenir-MediumOblique, Avenir" font-size="19.2" font-style="italic" font-weight="500" letter-spacing="2.8" transform="translate(0 -5.5)">
            <tspan x="3.286" y="117.901">WATER IS USED</tspan>
        </text>
        <text font-family="Avenir-Heavy, Avenir" font-size="24" font-weight="600" letter-spacing="3.5" transform="translate(0 -5.5)">
            <tspan x="110.097" y="89.28">LESS</tspan>
        </text>
        <path fill-rule="nonzero" d="M9.106 67.05a.642.642 0 0 0-.64.64v16.288l-6.784-5.824a.65.65 0 0 0-.896.064.65.65 0 0 0 .064.896l7.84 6.72c.128.096.256.16.416.16.16 0 .288-.064.416-.16l7.84-6.72a.65.65 0 0 0 .064-.896.65.65 0 0 0-.896-.064l-6.784 5.824V67.69a.642.642 0 0 0-.64-.64zM33.106 67.05a.642.642 0 0 0-.64.64v16.288l-6.784-5.824a.65.65 0 0 0-.896.064.65.65 0 0 0 .064.896l7.84 6.72c.128.096.256.16.416.16.16 0 .288-.064.416-.16l7.84-6.72a.65.65 0 0 0 .064-.896.65.65 0 0 0-.896-.064l-6.784 5.824V67.69a.642.642 0 0 0-.64-.64zM57.106 67.05a.642.642 0 0 0-.64.64v16.288l-6.784-5.824a.65.65 0 0 0-.896.064.65.65 0 0 0 .064.896l7.84 6.72c.128.096.256.16.416.16.16 0 .288-.064.416-.16l7.84-6.72a.65.65 0 0 0 .064-.896.65.65 0 0 0-.896-.064l-6.784 5.824V67.69a.642.642 0 0 0-.64-.64z"/>
        <g fill-rule="nonzero" transform="translate(128.945 .362)">
            <path d="M1.7 13.512a1.653 1.653 0 1 0 0-3.305 1.653 1.653 0 0 0 0 3.305zM1.7 16.88a1.653 1.653 0 1 0 0-3.306 1.653 1.653 0 0 0 0 3.305zM1.7 20.247a1.652 1.652 0 1 0 0-3.305 1.652 1.652 0 0 0 0 3.305zM26.983 1.756a1.652 1.652 0 1 0 3.304 0 1.652 1.652 0 0 0-3.304 0zM23.616 1.756a1.652 1.652 0 1 0 3.303 0 1.652 1.652 0 0 0-3.303 0zM20.256 1.756a1.652 1.652 0 1 0 3.304 0 1.652 1.652 0 0 0-3.304 0zM16.888 1.756a1.652 1.652 0 1 0 3.304 0 1.652 1.652 0 0 0-3.304 0zM13.52 1.756a1.652 1.652 0 1 0 3.304 0 1.652 1.652 0 0 0-3.304 0zM10.152 1.756a1.652 1.652 0 1 0 3.304-.001 1.652 1.652 0 0 0-3.304 0z"/>
            <path d="M20.256 5.124a1.652 1.652 0 1 0 3.304 0 1.652 1.652 0 0 0-3.304 0zM16.888 5.124a1.652 1.652 0 1 0 3.304-.001 1.652 1.652 0 0 0-3.304 0z"/>
            <path d="M20.256 8.492a1.652 1.652 0 1 0 3.304 0 1.652 1.652 0 0 0-3.304 0zM16.888 8.492a1.652 1.652 0 1 0 3.304-.001 1.652 1.652 0 0 0-3.304 0zM30.351 11.86a1.652 1.652 0 1 0 3.305 0 1.652 1.652 0 0 0-3.305 0z"/>
            <circle cx="28.635" cy="11.859" r="1.652"/>
            <circle cx="25.268" cy="11.859" r="1.652"/>
            <ellipse cx="21.876" cy="11.827" rx="1.652" ry="1.652"/>
            <path d="M16.856 11.827a1.653 1.653 0 1 0 3.305 0 1.653 1.653 0 0 0-3.305 0zM13.488 11.827a1.653 1.653 0 1 0 3.305 0 1.653 1.653 0 0 0-3.305 0z"/>
            <circle cx="11.772" cy="11.827" r="1.652"/>
            <path d="M6.785 11.86a1.653 1.653 0 1 0 3.305-.001 1.653 1.653 0 0 0-3.305 0z"/>
            <circle cx="5.069" cy="11.859" r="1.652"/>
            <path d="M33.72 15.227a1.653 1.653 0 1 0 3.305 0 1.653 1.653 0 0 0-3.306 0zM30.351 15.227a1.652 1.652 0 1 0 3.305 0 1.652 1.652 0 0 0-3.305 0zM26.983 15.227a1.652 1.652 0 1 0 3.305 0 1.652 1.652 0 0 0-3.305 0zM23.616 15.227a1.652 1.652 0 1 0 3.304 0 1.652 1.652 0 0 0-3.304 0zM20.224 15.195a1.652 1.652 0 1 0 3.304 0 1.652 1.652 0 0 0-3.304 0zM16.856 15.195a1.652 1.652 0 1 0 3.305 0 1.652 1.652 0 0 0-3.305 0zM13.488 15.195a1.652 1.652 0 1 0 3.305 0 1.652 1.652 0 0 0-3.305 0zM10.12 15.195a1.653 1.653 0 1 0 3.305 0 1.653 1.653 0 0 0-3.305 0zM6.752 15.195a1.653 1.653 0 1 0 3.305-.001 1.653 1.653 0 0 0-3.305 0zM3.417 15.227a1.652 1.652 0 1 0 3.305 0 1.652 1.652 0 0 0-3.305 0z"/>
            <path d="M33.72 18.595a1.652 1.652 0 1 0 3.303 0 1.652 1.652 0 0 0-3.304 0zM30.351 18.595a1.652 1.652 0 1 0 3.304 0 1.652 1.652 0 0 0-3.304 0z"/>
            <circle cx="28.635" cy="18.595" r="1.652"/>
            <circle cx="25.268" cy="18.595" r="1.652"/>
            <circle cx="21.876" cy="18.563" r="1.652"/>
            <path d="M16.856 18.563a1.652 1.652 0 1 0 3.304 0 1.652 1.652 0 0 0-3.304 0zM13.488 18.563a1.652 1.652 0 1 0 3.304 0 1.652 1.652 0 0 0-3.304 0z"/>
            <ellipse cx="11.772" cy="18.563" rx="1.652" ry="1.652"/>
            <path d="M6.752 18.563a1.652 1.652 0 1 0 3.304-.001 1.652 1.652 0 0 0-3.304 0z"/>
            <circle cx="5.069" cy="18.595" r="1.652"/>
            <path d="M33.72 21.963a1.652 1.652 0 1 0 3.304-.001 1.652 1.652 0 0 0-3.305 0zM30.351 21.963a1.652 1.652 0 1 0 3.305 0 1.652 1.652 0 0 0-3.305 0zM26.983 21.963a1.652 1.652 0 1 0 3.305 0 1.652 1.652 0 0 0-3.305 0z"/>
            <path d="M33.72 25.33a1.652 1.652 0 1 0 3.304 0 1.652 1.652 0 0 0-3.305 0zM30.351 25.33a1.652 1.652 0 1 0 3.305 0 1.652 1.652 0 0 0-3.305 0z"/>
            <circle cx="28.635" cy="25.331" r="1.652"/>
            <path d="M23.616 25.33a1.652 1.652 0 1 0 3.303.001 1.652 1.652 0 0 0-3.303 0zM37.135 25.299a1.652 1.652 0 1 0 3.305-.001 1.652 1.652 0 0 0-3.305 0zM33.72 28.698a1.653 1.653 0 1 0 3.304 0 1.653 1.653 0 0 0-3.305 0zM30.351 28.698a1.652 1.652 0 1 0 3.305 0 1.652 1.652 0 0 0-3.305 0z"/>
            <circle cx="28.635" cy="28.698" r="1.652"/>
            <circle cx="25.268" cy="28.698" r="1.652"/>
            <path d="M37.135 28.666a1.652 1.652 0 1 0 3.305 0 1.652 1.652 0 0 0-3.305 0zM30.351 35.434a1.652 1.652 0 1 0 3.305 0 1.652 1.652 0 0 0-3.305 0zM33.72 38.802a1.652 1.652 0 1 0 3.304-.001 1.652 1.652 0 0 0-3.305.001z"/>
            <path d="M30.351 38.802a1.652 1.652 0 1 0 3.305 0 1.652 1.652 0 0 0-3.305 0zM26.983 38.802a1.652 1.652 0 1 0 3.305 0 1.652 1.652 0 0 0-3.305 0zM33.72 42.17a1.652 1.652 0 1 0 3.304 0 1.652 1.652 0 0 0-3.305 0z"/>
            <path d="M30.351 42.17a1.652 1.652 0 1 0 3.305 0 1.652 1.652 0 0 0-3.305 0z"/>
            <circle cx="28.635" cy="42.17" r="1.652"/>
            <circle cx="25.268" cy="42.17" r="1.652"/>
            <path d="M37.168 42.17a1.653 1.653 0 1 0 3.305-.001 1.653 1.653 0 0 0-3.305.001zM33.72 45.538a1.652 1.652 0 1 0 3.304-.001 1.652 1.652 0 0 0-3.305 0zM30.351 45.538a1.652 1.652 0 1 0 3.305-.001 1.652 1.652 0 0 0-3.305 0zM26.983 45.538a1.652 1.652 0 1 0 3.305-.001 1.652 1.652 0 0 0-3.305 0zM23.616 45.538a1.652 1.652 0 1 0 3.304 0 1.652 1.652 0 0 0-3.304 0z"/>
            <path d="M37.168 45.538a1.652 1.652 0 1 0 3.305-.002 1.652 1.652 0 0 0-3.305.002zM33.72 48.905a1.652 1.652 0 1 0 3.304 0 1.652 1.652 0 0 0-3.305 0zM30.351 48.905a1.652 1.652 0 1 0 3.305 0 1.652 1.652 0 0 0-3.305 0zM26.983 48.905a1.652 1.652 0 1 0 3.305 0 1.652 1.652 0 0 0-3.305 0z"/>
        </g>
    </g>
</svg>
