<svg xmlns="http://www.w3.org/2000/svg" width="185" height="131" viewBox="0 0 185 131">
    <g fill="none" fill-rule="evenodd">
        <path stroke="#173E4F" d="M.5 1h184v65H.5zM.5 66h184v32H.5zM.5 98h184v32H.5z"/>
        <text fill="#173E4F" font-family="AvenirNext-Heavy, Avenir Next" font-size="48" font-weight="600">
            <tspan x="18.5" y="48.5">74%</tspan>
        </text>
        <text fill="#173E4F" font-family="AvenirNext-DemiBoldItalic, Avenir Next" font-size="18" font-style="italic" font-weight="500" letter-spacing="2.625">
            <tspan x="10.448" y="120.32">WATER</tspan> <tspan x="83.477" y="120.32" font-family="Avenir-Oblique, Avenir" font-weight="normal" letter-spacing="2.461"> IS USED</tspan>
        </text>
        <g fill="#173E4F">
            <text font-family="AvenirNext-DemiBold, Avenir Next" font-size="24" font-weight="500" letter-spacing="3.5" transform="translate(18.5 65.5)">
                <tspan x="79" y="24">LESS</tspan>
            </text>
            <path fill-rule="nonzero" d="M27.64 72.128a.642.642 0 0 0-.64.64v16.288l-6.784-5.824a.65.65 0 0 0-.896.064.65.65 0 0 0 .064.896l7.84 6.72c.128.096.256.16.416.16.16 0 .288-.064.416-.16l7.84-6.72a.65.65 0 0 0 .064-.896.65.65 0 0 0-.896-.064l-6.784 5.824V72.768a.642.642 0 0 0-.64-.64zM51.64 72.128a.642.642 0 0 0-.64.64v16.288l-6.784-5.824a.65.65 0 0 0-.896.064.65.65 0 0 0 .064.896l7.84 6.72c.128.096.256.16.416.16.16 0 .288-.064.416-.16l7.84-6.72a.65.65 0 0 0 .064-.896.65.65 0 0 0-.896-.064l-6.784 5.824V72.768a.642.642 0 0 0-.64-.64zM75.64 72.128a.642.642 0 0 0-.64.64v16.288l-6.784-5.824a.65.65 0 0 0-.896.064.65.65 0 0 0 .064.896l7.84 6.72c.128.096.256.16.416.16.16 0 .288-.064.416-.16l7.84-6.72a.65.65 0 0 0 .064-.896.65.65 0 0 0-.896-.064l-6.784 5.824V72.768a.642.642 0 0 0-.64-.64z"/>
        </g>
        <g stroke="#173E4F" stroke-width=".98">
            <path d="M171.3 46.564h-25.33a.938.938 0 0 1-.939-.938v-.938h27.206v.938c0 .519-.42.938-.938.938zM152.536 36.245h-7.505l.548 3.283h6.41z"/>
            <path d="M151.129 44.688l.86-5.16h-6.41l.86 5.16zM172.237 36.245h-7.505l.625 3.752h6.255zM170.83 44.688l.782-4.69h-6.255l.782 4.69zM162.387 36.245h-7.505l.86 5.16h5.785zM160.98 44.688l.547-3.283h-5.786l.548 3.283zM160.887 21.938a1.58 1.58 0 0 0-1.315-.703h-13.434c-.612 0-1.107.495-1.107 1.106v4.354c0 .611.495 1.107 1.107 1.107h13.434a1.58 1.58 0 0 0 1.315-.704 1.58 1.58 0 0 1 1.315-.704h4.406v-3.752h-4.406a1.58 1.58 0 0 1-1.315-.704zM169.603 29.77a602.356 602.356 0 0 0-1.118-1.959s-.977 1.705-1.119 1.96c-.395.706-.377 1.338.126 1.84a1.4 1.4 0 0 0 1.985 0c.503-.502.521-1.134.126-1.84z"/>
            <path d="M146.138 27.802h13.442c.543 0 1.02-.3 1.333-.742a1.58 1.58 0 0 1 1.288-.666h4.407V24.05c-2.653 2.11-7.036 0-7.036 0-2.638-1.524-5.006-.906-6.567 0-1.92 1.114-5.951 1.407-7.974 0v2.646c0 .611.495 1.107 1.107 1.107z"/>
        </g>
    </g>
</svg>
